<?xml version="1.0" encoding="utf-8"?>
<!-- Generator: Adobe Illustrator 25.4.1, SVG Export Plug-In . SVG Version: 6.00 Build 0)  -->
<svg version="1.1" id="レイヤー_1" xmlns="http://www.w3.org/2000/svg" xmlns:xlink="http://www.w3.org/1999/xlink" x="0px"
	 y="0px" width="532px" height="200px" viewBox="0 0 532 200" style="enable-background:new 0 0 532 200;" xml:space="preserve">
<style type="text/css">
	.st0{fill:#111111;}
</style>
<g>
	<path class="st0" d="M435.956,93.552c-0.249-0.162-0.547-0.25-0.856-0.25l-1.345,0.168c-0.135-0.103-0.288-0.184-0.452-0.239
		c-0.402-0.134-0.565-0.199-0.695-0.282c-0.053-0.274-0.183-0.54-0.379-0.763c-0.266-0.308-0.677-0.51-1.098-0.541l-0.322-0.02
		l-1.765-1.685l-0.493-4.995c-0.033-0.328-0.169-0.637-0.382-0.884l0.017-0.267c0.029-0.422-0.113-0.832-0.386-1.146l0.08-1.182
		c0.028-0.416-0.112-0.834-0.386-1.147l0.111-1.647c0.029-0.422-0.113-0.832-0.386-1.146l0.11-1.645
		c0.029-0.424-0.111-0.834-0.385-1.147l0.171-2.564c0.029-0.422-0.111-0.832-0.385-1.146l0.171-2.566
		c0.029-0.422-0.109-0.831-0.389-1.149c-0.019-0.022-0.039-0.044-0.06-0.064c0.007-1.122,0.039-5.68,0.044-6.52
		c0.033-0.064,0.066-0.136,0.102-0.214c0.298-0.652,0.766-1.676,0.531-3.037c-0.298-1.735,0.022-4.453,0.361-7.332
		c0.199-1.683,0.403-3.413,0.52-5.177l0.356-5.326c0.31-0.269,0.507-0.663,0.535-1.081l0.079-1.184
		c0.261-0.228,0.439-0.538,0.507-0.88c0.024-0.02,0.047-0.042,0.07-0.064c0.317-0.3,0.495-0.731,0.482-1.177l-0.094-3.958
		c0.252-0.276,0.41-0.637,0.433-1.009l0.028-0.405c0.027-0.385-0.086-0.759-0.318-1.065l0.628-4.671
		c0.32-0.247,0.538-0.608,0.598-1.007l0.671-4.431c0.298-0.219,0.51-0.536,0.595-0.902L436.788,0l1.127,0.072
		c0.064,0,0.175,0.018,0.286,0.028l2.859,0.192c0.629,0.926,1.322,1.494,1.838,1.917c0.864,0.709,1.308,1.072,1.22,3.175
		c-0.53,0.875-0.529,1.866-0.528,2.669c0,0.221,0.001,0.446-0.01,0.665c-0.053,0.037-0.105,0.077-0.154,0.122
		c-0.31,0.269-0.506,0.667-0.53,1.083l-0.111,1.643c-0.311,0.265-0.509,0.665-0.535,1.09l-0.078,1.175
		c-0.312,0.273-0.507,0.661-0.535,1.087l-0.111,1.647c-0.318,0.278-0.509,0.665-0.534,1.089l-0.079,1.181
		c-0.309,0.262-0.507,0.659-0.535,1.081l-0.11,1.645c-0.261,0.23-0.439,0.538-0.507,0.88c-0.28,0.239-0.469,0.569-0.531,0.936
		c-0.07,0.444,0.031,0.779,0.148,1.168c0.058,0.192,0.132,0.431,0.18,0.672h-0.001c-0.309,0.267-0.505,0.665-0.53,1.09l-0.087,1.311
		l-0.048,0.02c-0.607,0.26-0.987,0.845-0.972,1.497l0.117,4.903c-0.687,1.965-1.221,4.964-1.467,8.251
		c-0.032,0.46,0.132,0.906,0.449,1.228c0.304,0.311,0.699,0.475,1.14,0.475l0.53-0.018c0.714-0.024,1.186-0.041,2.061-0.494
		c0.114-0.061,0.217-0.133,0.31-0.214c0.151,0.011,0.316,0.02,0.32,0.02c0.43,0,0.798-0.131,1.095-0.392
		c0.008-0.006,0.016-0.013,0.023-0.02c0.397-0.037,0.691-0.166,0.934-0.381c0.076-0.066,0.145-0.14,0.206-0.221l0.965-0.21
		c0.261-0.048,0.513-0.171,0.723-0.359c0.147,0.011,0.306,0.02,0.308,0.02c0.409,0,0.789-0.14,1.099-0.407l0.006-0.006
		c0.412-0.033,0.707-0.16,0.951-0.376c0.011-0.009,0.021-0.018,0.032-0.028c0.367-0.044,0.673-0.18,0.914-0.392
		c0.424-0.033,0.713-0.16,0.962-0.381c0.116-0.101,0.216-0.221,0.297-0.354l1.903-0.495c0.301-0.079,0.567-0.241,0.772-0.466
		l2.666-0.16c0.353-0.018,0.686-0.157,0.949-0.389c0.149,0.011,0.31,0.02,0.313,0.02c0.401,0,0.762-0.131,1.071-0.389
		c0.162,0.011,0.346,0.022,0.351,0.022c0.431,0,0.786-0.127,1.086-0.389c0.149,0.011,0.31,0.02,0.312,0.02
		c0.607,0,1.123-0.28,1.416-0.77l0.032-0.055c0.493,0.033,1.364,0.09,1.365,0.09c0.411,0,0.795-0.138,1.092-0.389
		c0.301,0.02,0.778,0.052,0.779,0.052c0.416,0,0.803-0.138,1.098-0.389c0.423,0.029,1.247,0.083,1.253,0.083
		c0.415,0,0.761-0.131,1.086-0.414c0.02-0.018,0.04-0.037,0.06-0.055l4.957-0.048c0.554-0.006,1.072-0.306,1.351-0.785l0.025-0.042
		c0.795,0.053,2.75,0.182,2.753,0.182c0.153,0,0.299-0.017,0.436-0.05c0.077,0.031,0.158,0.057,0.241,0.077l3.676,0.263
		c0.273,0.313,0.663,0.508,1.09,0.538l0.401,0.026l0.018,0.048c0.23,0.54,0.724,0.904,1.298,0.963l0.02,0.05
		c0.16,0.383,0.473,0.694,0.858,0.853l0.844,0.346c0.022,0.059,0.044,0.114,0.066,0.169c-0.024,0.015-0.046,0.031-0.07,0.05
		c-0.094,0.066-0.182,0.149-0.263,0.243l-2.212,0.166c-0.341,0.024-0.665,0.16-0.921,0.385c-0.147-0.011-0.304-0.02-0.306-0.02
		c-0.429,0-0.799,0.129-1.098,0.383c-0.002,0.002-0.315-0.015-0.317-0.015c-0.433,0-0.803,0.129-1.1,0.385
		c0,0.002-0.309-0.017-0.311-0.017c-0.412,0-0.796,0.138-1.09,0.387c-0.153-0.009-0.323-0.02-0.326-0.02
		c-0.413,0-0.797,0.138-1.089,0.387c-0.424-0.028-1.251-0.081-1.259-0.081c-0.403,0-0.74,0.123-1.054,0.39
		c-0.157-0.011-0.333-0.022-0.335-0.022c-0.433,0-0.801,0.129-1.097,0.383c-0.001,0.002-0.772-0.046-0.775-0.046
		c-0.431,0-0.799,0.129-1.095,0.383c0,0.002-0.778-0.048-0.782-0.048c-0.413,0-0.796,0.138-1.089,0.389
		c-0.522-0.035-1.695-0.112-1.699-0.112c-0.425,0-0.802,0.133-1.094,0.383c-0.013,0.011-0.026,0.024-0.039,0.035
		c-0.44,0.052-0.8,0.232-1.054,0.51l-2.225,0.179c-0.352,0.026-0.686,0.171-0.946,0.409c-0.389,0.037-0.681,0.162-0.921,0.372
		c-0.302-0.018-0.772-0.05-0.774-0.05c-0.413,0-0.802,0.147-1.099,0.413c-0.413,0.031-0.701,0.157-0.95,0.374
		c-0.15-0.011-0.314-0.02-0.318-0.02c-0.611,0-1.128,0.285-1.418,0.783l-0.152,0.258l-1.155,0.206
		c-0.284,0.053-0.545,0.18-0.759,0.365c-0.522-0.033-1.689-0.111-1.691-0.111c-0.428,0-0.827,0.149-1.126,0.416
		c-0.571,0.061-0.995,0.332-1.248,0.759l-0.03,0.052c-0.412,0.002-0.798,0.149-1.092,0.413c-0.409,0.035-0.704,0.16-0.949,0.374
		l-0.489,0.429c-0.144-0.011-0.305-0.02-0.306-0.02c-0.604,0-1.137,0.287-1.427,0.772l-0.032,0.055
		c-0.427,0-0.793,0.131-1.088,0.389c-0.149-0.011-0.311-0.02-0.313-0.02c-0.608,0-1.125,0.28-1.419,0.772l-0.032,0.055
		c-0.213-0.015-0.45-0.029-0.452-0.029c-0.43,0-0.798,0.129-1.094,0.383c-0.014,0.011-0.028,0.024-0.041,0.037
		c-0.425,0.052-0.774,0.232-1.03,0.51c-0.286-0.057-0.584-0.175-0.917-0.306c-0.544-0.214-1.217-0.477-1.981-0.477
		c-0.714,0-1.382,0.23-1.988,0.687c-0.533,0.405-0.755,1.077-0.567,1.715c0.04,0.133,0.095,0.258,0.165,0.374l-0.371,1.573
		c-0.109,0.451-0.012,0.928,0.265,1.304c0.026,0.035,0.052,0.068,0.081,0.101l-0.017,0.265c-0.029,0.424,0.111,0.834,0.385,1.147
		l-0.259,3.903c-0.027,0.142-0.122,0.407-0.221,0.693c-0.355,1.026-0.809,2.341-0.494,3.881c0.156,0.742,0.408,1.95,0.302,2.936
		c-0.514,0.49-0.749,1.182-0.663,1.976c0.035,0.322,0.169,0.626,0.38,0.871l-0.048,0.729c-0.031,0.411,0.111,0.829,0.389,1.146
		c0.019,0.024,0.041,0.048,0.063,0.07l-0.029,6.303c-0.001,0.392,0.139,0.761,0.39,1.048l-0.361,5.396l0.027,0.315
		c0.157,0.698,0.325,1.308,0.496,1.925c0.378,1.367,0.769,2.772,0.827,4.383C436.228,93.337,435.981,93.534,435.956,93.552z"/>
	<path class="st0" d="M276.131,104.747c-0.181-0.227-0.41-0.444-0.737-0.586c-0.063-0.147-0.147-0.282-0.254-0.403
		c-0.272-0.313-0.668-0.508-1.083-0.538l-0.592-0.037l-0.823-1.269c-0.267-0.413-0.723-0.681-1.218-0.716l-0.595-0.041
		c0,0-0.832-1.28-0.836-1.287l1.719-1.803l0.645-0.269c0.53-0.217,0.904-0.722,0.963-1.298l0.049-0.02
		c0.384-0.16,0.695-0.473,0.854-0.86l0.857-2.092l0.349-0.149c0.39-0.166,0.693-0.47,0.851-0.86l0.346-0.844l0.97-0.556
		c0.458-0.262,0.753-0.735,0.791-1.265l0.012-0.182l2.315-1.68c0.367-0.267,0.599-0.672,0.644-1.12l0.05-0.02
		c0.553-0.234,0.931-0.768,0.967-1.359l0.04-0.586l1.271-0.827c0.268-0.175,0.475-0.424,0.599-0.722l0.92-2.245l1.518-0.989
		c0.399-0.258,0.662-0.691,0.711-1.162l0.049-0.02c0.562-0.238,0.932-0.759,0.968-1.361l0.028-0.396l0.048-0.02
		c0.427-0.18,0.753-0.534,0.895-0.972l0.361-1.12l0.279-0.116c0.427-0.184,0.751-0.538,0.894-0.972l0.361-1.12l0.279-0.116
		c0.429-0.184,0.754-0.54,0.895-0.976l0.359-1.116l0.279-0.116c0.385-0.16,0.698-0.475,0.855-0.866l0.898-2.194l0.969-0.554
		c0.461-0.267,0.757-0.739,0.793-1.265l0.066-0.996l0.707-0.405c0.391-0.228,0.668-0.61,0.761-1.048l0.504-2.376l0.186-0.077
		c0.559-0.238,0.928-0.757,0.967-1.357l0.049-0.724c0.215-0.188,0.375-0.429,0.462-0.705l0.28-0.866
		c0.106-0.055,0.205-0.123,0.298-0.204c0.317-0.278,0.512-0.674,0.537-1.09l0.049-0.722c0.003-0.004,0.006-0.006,0.008-0.007
		c0.304-0.26,0.501-0.658,0.526-1.083l0.049-0.72c0.31-0.269,0.507-0.665,0.535-1.081l0.017-0.267
		c0.188-0.166,0.336-0.374,0.428-0.61c0.908-2.306,0.697-7.045,0.596-8.095c-0.063-0.661-0.54-1.216-1.186-1.38
		c-1.18-0.3-2.255-0.44-3.384-0.44c-1.121,0-2.307,0.138-3.733,0.438c-5.195-0.387-5.195-0.387-5.221-0.387
		c-0.425,0-0.778,0.125-1.078,0.383c-0.013,0.011-0.026,0.022-0.039,0.035c-0.366,0.041-0.67,0.168-0.909,0.368
		c-0.519-0.035-1.693-0.112-1.694-0.112c-0.517,0-0.996,0.228-1.305,0.61l-0.984,0.219c-0.26,0.046-0.51,0.169-0.72,0.355
		c-0.149-0.011-0.311-0.02-0.314-0.02c-0.605,0-1.122,0.28-1.415,0.772l-0.032,0.055c-0.216-0.015-0.46-0.029-0.464-0.029
		c-0.602,0-0.959,0.302-1.077,0.402l-0.014,0.011c-0.403,0.033-0.694,0.158-0.939,0.368c-0.012,0.009-0.024,0.02-0.037,0.031
		c-0.39,0.037-0.681,0.162-0.925,0.376c-0.008,0.007-0.017,0.015-0.025,0.022c-0.394,0.037-0.688,0.164-0.93,0.379
		c-0.076,0.066-0.146,0.142-0.207,0.221l-0.968,0.215c-0.346,0.059-0.695,0.273-0.933,0.584l-0.613,0.798l-1.681,0.219
		c-0.424,0.059-0.797,0.274-1.053,0.608l-0.68,0.886l-0.887,0.232c-0.249,0.064-0.481,0.193-0.671,0.367
		c-0.565,0.066-0.997,0.341-1.245,0.763l-0.19,0.324l-2.186,0.569c-0.316,0.081-0.597,0.258-0.809,0.51l-0.981,1.138
		c-0.092-0.006-0.173-0.011-0.174-0.011c-0.608,0-1.142,0.293-1.428,0.785l-0.027,0.044c-0.508,0.002-0.939,0.19-1.247,0.545
		l-1.434,1.685l-4.228,3.249c-0.302,0.236-0.507,0.569-0.581,0.937c-0.136,0.116-0.251,0.256-0.342,0.413l-0.021,0.035l-0.536-0.035
		c-0.18-0.228-0.41-0.448-0.737-0.588c-0.061-0.144-0.144-0.276-0.25-0.4c-0.282-0.32-0.668-0.512-1.089-0.54
		c0,0-0.268-0.02-0.269-0.022c-0.267-0.311-0.669-0.508-1.093-0.53l-0.116-0.007l-0.823-1.267c-0.265-0.413-0.722-0.683-1.22-0.72
		l-0.134-0.007l-0.823-1.267c-0.039-0.059-0.081-0.116-0.127-0.169l2.306-1.672c0.583-0.427,0.651-1.201,0.657-1.287l0.01-0.149
		c0.145,0.009,0.307,0.018,0.309,0.018c0.543,0,1.01-0.221,1.316-0.621l0.833-1.083c1.775-1.089,3.463-2.109,5.784-2.415
		c0.599-0.081,1.092-0.483,1.289-1.05c0.249-0.718,0.309-0.739,1.043-0.985c0.425-0.142,1.007-0.335,1.654-0.705
		c0.238-0.134,0.439-0.335,0.58-0.578l0.025-0.042c0.611-0.002,1.126-0.287,1.416-0.785l0.152-0.258l1.154-0.206
		c0.364-0.07,0.691-0.258,0.924-0.532l1.134-1.317l1.317-0.236c0.444-0.083,0.832-0.352,1.065-0.726l1.906-0.495
		c0.237-0.061,0.457-0.179,0.642-0.341c0.147,0.011,0.306,0.02,0.307,0.02c0.408,0,0.8-0.146,1.103-0.409l0.005-0.004
		c0.411-0.033,0.705-0.16,0.949-0.374c0.146,0.011,0.304,0.02,0.306,0.02c0.518,0,0.997-0.228,1.305-0.611l0.981-0.217
		c0.306-0.055,0.597-0.215,0.821-0.451l4.017-0.096c0.547-0.011,1.043-0.302,1.325-0.777l0.03-0.052
		c0.43-0.002,0.797-0.133,1.089-0.389c0.301,0.02,0.772,0.05,0.775,0.05c0.412,0,0.795-0.138,1.088-0.387
		c0.422,0.029,1.245,0.083,1.251,0.083c0.427,0,0.794-0.131,1.09-0.392c0.058-0.05,0.112-0.105,0.162-0.162l0.2-0.004
		c3.241,0,9.559,0.925,10.418,1.275l0.411,0.103l0.945,0.066l0.02,0.05c0.162,0.389,0.48,0.702,0.873,0.856l0.476,0.195
		c0.205,0.459,0.607,0.792,1.098,0.897l2.61,0.553l2.188,2.928c0.272,0.367,0.693,0.597,1.156,0.632l0.267,0.018l-0.017,0.26
		c-0.043,0.593,0.264,1.171,0.783,1.473l0.04,0.024l-0.027,0.405c-0.029,0.418,0.108,0.825,0.385,1.144l-0.017,0.265
		c-0.037,0.527,0.191,1.028,0.596,1.346c0.068,2.354-0.988,6.758-1.862,9.196c-0.138,0.061-0.263,0.14-0.379,0.239
		c-0.316,0.278-0.511,0.674-0.536,1.092l-0.049,0.72c-0.003,0.004-0.006,0.006-0.008,0.007c-0.305,0.263-0.501,0.661-0.527,1.083
		l-0.058,0.856l-0.048,0.02c-0.559,0.238-0.929,0.757-0.968,1.357l-0.079,1.184c-0.215,0.19-0.375,0.431-0.462,0.705l-0.36,1.114
		l-0.279,0.116c-0.421,0.173-0.747,0.527-0.892,0.967l-0.287,0.891c-0.326,0.168-0.576,0.438-0.716,0.779l-0.741,1.81
		c-0.53,0.234-0.902,0.757-0.938,1.361l-0.017,0.258c-0.214,0.186-0.374,0.427-0.462,0.702l-0.286,0.886
		c-0.363,0.19-0.633,0.505-0.758,0.899l-0.285,0.882c-0.323,0.168-0.572,0.435-0.713,0.772l-0.308,0.748l-0.347,0.146
		c-0.384,0.164-0.693,0.477-0.852,0.86l-1.48,3.617l-2.042,1.42c-0.285,0.201-0.493,0.479-0.6,0.809l-0.361,1.12l-0.276,0.116
		c-0.425,0.175-0.753,0.53-0.897,0.976l-0.286,0.884c-0.328,0.169-0.577,0.442-0.717,0.785l-0.302,0.739l-0.347,0.144
		c-0.548,0.227-0.928,0.759-0.967,1.357l-0.009,0.129l-1.268,0.825c-0.401,0.262-0.663,0.694-0.712,1.164l-0.049,0.02
		c-0.558,0.238-0.928,0.755-0.968,1.356l-0.006,0.074l-0.706,0.405c-0.46,0.267-0.756,0.74-0.792,1.265l-0.006,0.077l-0.706,0.405
		c-0.463,0.271-0.758,0.744-0.791,1.271l-0.014,0.199l-3.325,2.54c-0.348,0.262-0.57,0.659-0.614,1.096l-0.049,0.02
		c-0.53,0.219-0.903,0.726-0.963,1.298l-0.049,0.02c-0.559,0.238-0.929,0.755-0.969,1.356l-0.017,0.26
		c-0.145-0.009-0.307-0.018-0.309-0.018c-0.544,0-1.012,0.219-1.315,0.621l-0.495,0.643L276.131,104.747z"/>
	<path class="st0" d="M365.51,94.046c-0.618-0.273-1.254-0.551-1.778-0.877l-0.217-0.518c-0.23-0.556-0.75-0.928-1.355-0.971
		l-0.405-0.026l-0.02-0.05c-0.105-0.25-0.274-0.472-0.488-0.639l-0.653-0.501l0.374-5.594c0.03-0.422-0.111-0.834-0.386-1.149
		l0.049-0.72c0.039-0.543-0.2-1.057-0.63-1.378c-0.052-0.09-0.112-0.175-0.18-0.256c-0.274-0.315-0.669-0.514-1.089-0.543
		c-0.004-0.002-1.896-0.125-1.904-0.125c-0.335,0-0.61,0.072-0.865,0.227l-4.815,2.912c-0.444,0.271-0.728,0.739-0.761,1.251
		l-0.006,0.072l-0.706,0.405c-0.401,0.234-0.676,0.621-0.764,1.063c-0.148,0.127-0.273,0.28-0.366,0.455
		c-0.252,0.475-0.323,0.949-0.344,1.354c-0.316-0.02-0.648-0.042-0.65-0.042c-0.755,0-1.376,0.442-1.58,1.129
		c-0.051,0.168-0.097,0.3-0.141,0.405l-0.134-0.319c-0.115-0.282-0.311-0.525-0.566-0.698c-0.3-0.203-0.628-0.302-0.977-0.302
		c-0.333,0-0.62,0.09-0.851,0.19c-0.177-0.123-0.379-0.21-0.59-0.252c-0.005-0.006-0.009-0.011-0.014-0.017
		c-0.265-0.308-0.661-0.505-1.081-0.536l-0.245-0.017l-0.079-0.302c-0.105-0.407-0.373-0.763-0.737-0.971l-0.041-0.024l0.139-2.078
		c0.639-0.694,0.95-1.479,1.205-2.118c0.162-0.409,0.292-0.735,0.465-1.013l1.675-1.09c0.401-0.258,0.663-0.691,0.712-1.164
		l0.05-0.02c0.223-0.09,0.429-0.241,0.592-0.431l1.134-1.319l1.316-0.236c0.357-0.064,0.685-0.252,0.922-0.529l0.986-1.147
		c0.094,0.006,0.178,0.011,0.18,0.011c0.433,0,0.832-0.149,1.127-0.416c0.366-0.041,0.672-0.169,0.913-0.37
		c0.149,0.009,0.314,0.02,0.315,0.02c0.419,0,0.813-0.147,1.115-0.413c0.405-0.035,0.7-0.162,0.944-0.376
		c0.163-0.144,0.293-0.315,0.384-0.506c1.145-0.411,2.264-0.604,3.502-0.604l0.246,0.002c0.777,0,1.414-0.534,1.559-1.271
		c0.007-0.006,0.014-0.013,0.021-0.018c0.302-0.258,0.499-0.654,0.527-1.076l0.031-0.46c0.029-0.425-0.113-0.836-0.386-1.149
		l0.049-0.724c0.045-0.654-0.327-1.276-0.925-1.547c-0.833-0.379-1.335-0.588-2.746-0.746c-0.009,0-0.019,0-0.029,0
		c-0.559,0-0.951,0.147-1.248,0.433c-0.164,0.158-0.237,0.204-0.252,0.215c0.037-0.024-0.026-0.035-0.1-0.046
		c-0.245-0.033-0.509-0.066-0.826-0.066c-0.476,0-0.953,0.074-1.457,0.225c-0.228,0.068-0.442,0.19-0.62,0.354
		c-0.361,0.041-0.661,0.169-0.898,0.37c-0.308-0.022-0.796-0.053-0.801-0.053c-0.417,0-0.779,0.125-1.077,0.376
		c-0.005,0.004-0.009,0.007-0.014,0.013c-0.152-0.011-0.318-0.02-0.321-0.02c-0.425,0-0.791,0.129-1.087,0.383
		c-0.002,0.002-1.232-0.076-1.236-0.076c-0.426,0-0.821,0.147-1.119,0.411c-0.394,0.033-0.678,0.157-0.924,0.368
		c-0.022,0.02-0.043,0.039-0.064,0.059c-0.201-0.042-0.421-0.105-0.648-0.18c-0.062-0.144-0.146-0.276-0.25-0.398
		c-0.281-0.319-0.667-0.51-1.089-0.538l-1.961-0.129c-0.577-0.783-1.27-1.365-1.941-1.928c-0.847-0.705-1.536-1.28-1.854-2.087
		c0.053,0.004,0.092,0.006,0.095,0.006c0.423,0,0.774-0.125,1.074-0.383c0.037-0.031,0.072-0.064,0.106-0.099l4.019-0.098
		c0.39-0.009,0.756-0.158,1.037-0.42c0.43-0.05,0.785-0.225,1.04-0.495l2.67-0.158c0.353-0.018,0.687-0.157,0.95-0.387
		c0.303,0.02,0.775,0.05,0.781,0.05c0.429,0,0.796-0.131,1.089-0.389c0.152,0.011,0.319,0.02,0.322,0.02
		c0.427,0,0.793-0.129,1.087-0.387c0.152,0.011,0.319,0.02,0.323,0.02c0.425,0,0.791-0.131,1.088-0.387
		c0.521,0.033,1.688,0.111,1.69,0.111c0.551,0,1.041-0.243,1.342-0.652c0.44-0.046,0.896-0.063,1.341-0.079
		c0.991-0.037,2.008-0.074,2.998-0.379c0.599-0.186,1.034-0.707,1.108-1.328c0.325-2.825,1.059-5.654,1.506-6.708l0.122,0.009
		c0.696,0.422,1.447,0.477,2.032,0.477c0.198,0,1.135-0.028,1.135-0.028c0.126,0,0.237,0.006,0.332,0.015l0.121,0.287
		c0.074,0.173,0.182,0.341,0.316,0.483c0.115,0.118,0.801,0.917,0.802,0.917c0.275,0.322,0.664,0.518,1.093,0.549l0.076,0.004
		l0.407,0.709c0.227,0.398,0.614,0.674,1.061,0.764c0.158,0.184,0.355,0.328,0.583,0.425c0.433,0.18,0.876,0.271,1.32,0.271
		c0.727,0,1.302-0.241,1.646-0.385l3.43,0.505c0.117,0.402,0.39,0.751,0.766,0.956c0.795,0.429,1.066,0.785,1.518,1.374
		c0.101,0.134,0.208,0.273,0.323,0.416c-0.037,0.076-0.067,0.155-0.091,0.234l-0.057,0.199c-0.059,0.201-0.162,0.556-0.273,0.851
		c-0.052-0.004-0.089-0.006-0.091-0.006c-0.433,0-0.82,0.147-1.112,0.418c-0.372,0.039-0.671,0.166-0.909,0.37
		c-0.159-0.011-0.337-0.022-0.341-0.022c-0.433,0-0.802,0.131-1.099,0.392c-0.009,0.007-0.018,0.017-0.028,0.026
		c-0.367,0.041-0.672,0.168-0.911,0.368c-0.157-0.009-0.332-0.02-0.337-0.02c-0.542,0-0.992,0.215-1.3,0.623l-0.494,0.641
		c-0.389-0.024-1.036-0.066-1.038-0.066c-0.535,0-1.008,0.225-1.311,0.611l-0.975,0.217c-0.669,0.112-1.209,0.724-1.257,1.446
		l-0.062,0.917c-0.017,0.238,0.023,0.477,0.112,0.698c-0.082,0.144-0.14,0.298-0.174,0.46c-0.169,0.792-0.064,1.464,0.312,2
		l-0.129,1.934c-0.029,0.422,0.113,0.832,0.386,1.146l-0.233,3.485c-0.029,0.424,0.111,0.834,0.385,1.147l-0.356,5.323
		c-0.03,0.422,0.111,0.834,0.385,1.147l-0.325,4.864c-0.027,0.374,0.081,0.742,0.301,1.041l-0.548,3.63l-0.417,0.285
		c-0.66,0.46-1.058,0.698-1.286,0.818L365.51,94.046z M355.031,66.544"/>
	<g>
		<path class="st0" d="M120.353,76.31c-0.434-0.005-0.939-0.036-1.556-0.086c-0.909-0.915-1.975-1.38-2.84-1.758
			c-1.28-0.565-1.921-0.845-2.14-2.061c-0.028-0.158-0.072-0.331-0.19-0.523c-0.031-0.836,0.563-5.569,1.156-7.933
			c0.513-0.256,0.845-0.735,0.89-1.311l0.11-1.392c0.351-0.284,0.571-0.691,0.605-1.134l0.231-2.931
			c0.351-0.282,0.572-0.691,0.606-1.138l0.108-1.367c0.35-0.275,0.572-0.689,0.608-1.16l0.028-0.347
			c0.35-0.282,0.571-0.693,0.607-1.151l0.19-2.407c0.35-0.28,0.571-0.691,0.607-1.147l0.07-0.892
			c0.355-0.278,0.571-0.674,0.604-1.124l0.27-3.427c0.35-0.282,0.571-0.693,0.607-1.151l0.028-0.348
			c0.012-0.009,0.024-0.021,0.036-0.03c0.293-0.249,0.49-0.599,0.554-0.979c0.354-0.282,0.578-0.685,0.612-1.126l0.149-1.894
			c0.349-0.28,0.57-0.691,0.607-1.147l0.068-0.867c0.35-0.282,0.571-0.693,0.607-1.151l0.398-5.056
			c1.543-3.934,2.722-8.7,3.863-13.309c0.51-2.069,1.029-4.167,1.58-6.196c0.358-0.036,0.776-0.05,1.266-0.044
			c0.417,0.005,0.848,0.025,1.279,0.053c0.224,0.277,0.534,0.476,0.883,0.564l2.86,0.708c0.176,0.139,0.363,0.332,0.577,0.547
			c0.401,0.405,0.932,0.941,1.877,1.398c0.119,2.219-0.286,3.761-1.104,5.917l-0.096,0.397l-0.283,3.575
			c-1.596,4.018-2.654,8.526-3.108,13.242c-0.044,0.432,0.093,0.875,0.376,1.212c0.284,0.337,0.697,0.55,1.133,0.584
			c0,0,1.587,0.121,1.593,0.121c0.636,0.007,1.192-0.297,1.491-0.799l0.602-0.148c0.306-0.08,0.575-0.236,0.784-0.453l2.268-2.324
			c0.148,0.011,0.305,0.023,0.307,0.023c0.637,0.007,1.179-0.28,1.489-0.788l0.073-0.122c0.043,0.002,0.072,0.005,0.075,0.005
			c0.644,0.008,1.17-0.278,1.481-0.803l0.198-0.329l1.349-0.225c0.471-0.08,0.884-0.361,1.133-0.77l0.073-0.122
			c0.041,0.002,0.068,0.005,0.07,0.005c0.552,0.006,1.035-0.212,1.359-0.615l0.761-0.967l1.467-0.246
			c0.472-0.08,0.886-0.361,1.135-0.771l0.245-0.407l2.499-0.621c0.423-0.105,0.793-0.379,1.015-0.754l0.202-0.333l1.347-0.225
			c0.446-0.074,0.834-0.324,1.085-0.69l1.049-0.173c0.317-0.055,0.605-0.196,0.836-0.405c0.184,0.014,0.395,0.029,0.398,0.029
			c0.472,0.006,0.9-0.154,1.213-0.446c0.44-0.029,0.748-0.158,1.004-0.381c0.067-0.058,0.129-0.12,0.187-0.189l4.208-0.563
			c0.495-0.062,0.933-0.345,1.196-0.776l0.073-0.122c0.424,0.033,1.094,0.085,1.1,0.085c0.457,0.005,0.831-0.125,1.144-0.398
			c0.02-0.017,0.04-0.036,0.06-0.054c0.426-0.037,0.768-0.179,1.028-0.403c0.473,0.036,1.43,0.11,1.433,0.11
			c0.55,0.006,1.031-0.208,1.346-0.585c2.574,0.096,6.4,1.129,6.849,1.416c0.187,0.203,0.558,0.374,0.946,0.409l0.269,0.022
			l1.878,2.653c0.037,0.052,0.078,0.103,0.123,0.153l-0.059,0.742c-0.194,0.231-0.336,0.464-0.444,0.658l-5.01,0.51
			c-0.351,0.034-0.68,0.18-0.938,0.414c-0.185-0.014-0.398-0.029-0.401-0.029c-0.446-0.005-0.83,0.127-1.141,0.39
			c-0.022,0.019-0.044,0.037-0.065,0.058c-0.438,0.029-0.746,0.156-1.003,0.375c-0.012,0.011-0.025,0.021-0.037,0.032
			c-0.348-0.027-0.919-0.07-0.925-0.07c-0.447-0.005-0.816,0.121-1.131,0.389c-0.058,0.049-0.113,0.103-0.164,0.161l-2.563,0.197
			c-0.363,0.02-0.715,0.179-0.991,0.445c-0.45,0.027-0.757,0.15-1.015,0.365c-0.016,0.013-0.032,0.028-0.047,0.041
			c-0.184-0.014-0.396-0.029-0.398-0.029c-0.598-0.007-1.122,0.258-1.435,0.709l-1.05,0.173c-0.332,0.057-0.633,0.209-0.868,0.435
			c-0.622,0.053-1.062,0.327-1.332,0.765l-0.247,0.408l-2.501,0.621c-0.425,0.109-0.781,0.372-1.008,0.741l-0.209,0.346
			l-1.348,0.225c-0.472,0.08-0.886,0.361-1.135,0.771l-0.073,0.122c-0.036-0.002-0.061-0.005-0.062-0.005
			c-0.631-0.007-1.172,0.278-1.484,0.782l-0.184,0.309l-1.81,0.214c-0.413,0.056-0.78,0.251-1.042,0.553l-1.155,1.311
			c-0.127-0.011-0.251-0.02-0.253-0.02c-0.638-0.007-1.181,0.28-1.49,0.788l-0.127,0.213c-0.405,0.109-0.759,0.37-0.98,0.735
			l-0.073,0.12c-0.042-0.002-0.072-0.005-0.074-0.005c-0.442-0.005-0.824,0.127-1.135,0.39c-0.263,0.226-0.448,0.527-0.53,0.856
			c-0.48,0.343-0.737,0.49-1.453,0.633c-0.717,0.145-1.259,0.755-1.318,1.482l-0.019,0.242l-2.076,1.41
			c-0.061,0.041-0.119,0.088-0.174,0.138l-1.217-0.094c-0.009-0.013-0.019-0.025-0.029-0.036c-0.278-0.327-0.672-0.531-1.11-0.57
			l-1.9-0.149c-0.245-0.306-0.589-0.513-0.978-0.586c-0.078-0.098-0.167-0.186-0.268-0.267c-0.792-0.625-1.688-1.333-2.813-1.346
			c-0.674-0.008-1.322,0.237-1.928,0.73c-0.77,0.086-1.326,0.572-1.48,1.264l-0.558,2.488c-0.452,0.268-0.746,0.729-0.786,1.259
			l-0.163,2.064l-0.127,0.052c-0.582,0.236-0.973,0.771-1.02,1.4l-0.108,1.367c-0.351,0.276-0.572,0.691-0.608,1.157l-0.028,0.348
			c-0.35,0.282-0.571,0.695-0.607,1.153l-0.068,0.862c-0.351,0.28-0.572,0.693-0.608,1.151l-0.069,0.863
			c-0.35,0.276-0.571,0.687-0.606,1.149l-0.109,1.375c-0.011,0.009-0.022,0.019-0.033,0.028c-0.335,0.282-0.54,0.682-0.573,1.125
			l-0.273,3.456c-0.35,0.284-0.571,0.689-0.605,1.126l-0.028,0.347c-0.035,0.028-0.07,0.058-0.103,0.09
			c-0.346,0.337-0.529,0.796-0.509,1.264l0.133,2.896c-0.213,0.221-0.36,0.5-0.424,0.808l-0.658,3.199
			C121.736,76.218,121.208,76.32,120.353,76.31z"/>
		<path class="st0" d="M37.084,61.07c-0.199-0.203-0.448-0.354-0.727-0.433l-1.489-0.421c-0.125-0.242-0.308-0.445-0.537-0.598
			l-3.615-2.396l0.005-0.064c0.042-0.523-0.176-1.035-0.569-1.373l-0.091-0.831l8.594-3.434c0.325-0.117,0.62-0.362,0.814-0.678
			l0.076-0.126c0.042,0.002,0.071,0.005,0.073,0.005c0.635,0.007,1.175-0.284,1.481-0.801l0.066-0.109
			c0.041,0.002,0.069,0.005,0.071,0.005c0.483,0.006,0.907-0.156,1.227-0.471l5.008-2.693c0.182,0.015,0.451,0.036,0.452,0.036
			c0.785,0.009,1.428-0.44,1.651-1.12l0.902-0.505c0.482-0.271,0.794-0.76,0.837-1.306l0.001-0.015l0.127-0.052
			c0.514-0.204,0.893-0.672,0.997-1.218c0.249-0.194,0.435-0.459,0.539-0.773l0.34-1.01c0.124-0.057,0.238-0.13,0.347-0.22
			c0.345-0.301,0.548-0.701,0.582-1.136l0.028-0.347c0.35-0.282,0.571-0.693,0.607-1.151l0.069-0.875
			c0.349-0.276,0.569-0.683,0.606-1.138l0.028-0.352c0.322-0.26,0.539-0.636,0.598-1.052l1.041-7.537
			c0.053-0.037,0.104-0.078,0.154-0.125c0.331-0.301,0.527-0.733,0.535-1.184l0.133-8.258c0.01-0.589-0.299-1.141-0.805-1.438
			l-0.107-0.064l0.122-1.557c0.045-0.551-0.189-1.084-0.628-1.423l-0.762-0.602l0.092-1.18c0.056-0.703-0.336-1.342-0.957-1.624
			c-0.177-0.483-0.25-0.805-0.27-1.355c0.245-0.018,0.505-0.024,0.791-0.021c0.159,0.002,0.325,0.008,0.499,0.015
			c1.085,0.922,2.19,0.966,3.008,0.998c0.26,0.011,0.506,0.019,0.757,0.056c0.189,0.381,0.512,0.667,0.925,0.807l1.187,0.399
			c0.391,1.089,1.008,1.839,1.556,2.505c0.247,0.299,0.49,0.591,0.715,0.926c0.048,0.074,0.103,0.141,0.162,0.207
			c0.018,0.398,0.152,0.735,0.38,1.007c0.048,0.056,0.097,0.107,0.151,0.155l0.168,3.055c0.025,0.542,0.32,1.039,0.792,1.323
			l0.118,0.072l-0.081,1.041c-0.036,0.428,0.099,0.852,0.381,1.191c0.019,0.021,0.036,0.04,0.055,0.059
			c0.022,0.417,0.169,0.775,0.415,1.049l-0.027,0.348c-0.036,0.432,0.101,0.856,0.386,1.195c0.089,0.105,0.188,0.196,0.298,0.275
			c0.095,1.644-0.481,3.444-1.039,5.187c-0.448,1.397-0.872,2.719-1.005,4.054c-0.072,0.689,0.304,1.353,0.934,1.65l0.322,0.153
			c0.592,0.289,0.931,0.441,2.102,0.652c0.022,0,0.045,0.001,0.066,0.001c0.649,0.008,1.026-0.124,1.333-0.405
			c0.112-0.101,0.318-0.239,0.788-0.233c1.17,0.014,2.779,0.88,3.858,1.654l0.26,0.642c0.212,0.522,0.683,0.899,1.228,1.002
			c0.085,0.105,0.182,0.203,0.29,0.284c0.269,0.202,0.516,0.357,0.763,0.471l0.018,0.093c0.042,0.232,0.113,0.433,0.212,0.609
			c-0.315-0.023-0.751-0.056-0.754-0.056c-0.444-0.005-0.841,0.129-1.147,0.388c-0.012,0.011-0.025,0.021-0.036,0.032
			c-0.186-0.014-0.4-0.029-0.403-0.029c-0.635-0.007-1.176,0.282-1.484,0.794l-0.07,0.117c-0.034-0.002-0.057-0.004-0.058-0.004
			c-0.432-0.005-0.839,0.148-1.153,0.424c-0.196-0.014-0.432-0.032-0.435-0.032c-0.469-0.005-0.898,0.156-1.213,0.452
			c-0.425,0.041-0.764,0.19-1.026,0.428c-0.504,0.03-0.849,0.183-1.118,0.444l-3.937,3.784c-0.158-0.011-0.334-0.025-0.336-0.025
			c-0.45-0.005-0.869,0.157-1.185,0.45c-0.652,0.049-1.1,0.324-1.372,0.771l-0.245,0.407l-2.5,0.619
			c-0.608,0.156-1.067,0.632-1.205,1.222c-0.165,0.129-0.323,0.26-0.48,0.389c-0.717,0.585-1.232,1.005-2.075,1.172
			c-0.57,0.113-1.042,0.524-1.233,1.075c0,0-0.113,0.327-0.126,0.364c-0.139,0.082-0.302,0.195-0.489,0.343
			c-0.04,0.032-0.078,0.065-0.115,0.099c-0.489,0.036-0.834,0.197-1.101,0.467l-5.407,2.986
			C45.154,58.554,39.548,60.721,37.084,61.07z"/>
		<path class="st0" d="M107.24,160.625c-0.056-0.084-0.12-0.163-0.192-0.233c-0.334-0.332-0.692-0.425-0.999-0.47l-1.029-0.012
			c-0.128-0.136-0.278-0.25-0.443-0.335c-2.301-1.185-2.351-1.212-2.23-4.029c0.421-0.503,0.574-0.922,0.66-1.306
			c0.513-0.25,0.848-0.714,0.907-1.269c0.334-0.309,0.526-0.742,0.524-1.209l0.001-0.347c0.009-0.007,0.017-0.015,0.026-0.024
			c0.275-0.277,0.441-0.626,0.479-0.997c0.012-0.011,0.024-0.022,0.036-0.034c0.313-0.307,0.49-0.735,0.488-1.175l0-0.008
			l0.122-0.061c0.392-0.196,0.685-0.534,0.824-0.949l0.816-2.445l0.42-0.211c0.549-0.27,0.908-0.848,0.91-1.47l0-0.866
			c0.012-0.011,0.024-0.024,0.035-0.036c0.305-0.3,0.48-0.726,0.478-1.164l0-0.009l0.123-0.061c0.45-0.228,0.776-0.654,0.876-1.142
			l0.303-1.518c0.098-0.061,0.19-0.134,0.274-0.219c0.272-0.274,0.438-0.62,0.477-0.993c0.012-0.011,0.024-0.022,0.036-0.034
			c0.313-0.313,0.488-0.739,0.488-1.173l0-0.011l0.123-0.061c0.447-0.22,0.775-0.649,0.875-1.146l0.383-1.908l0.978-0.652
			c0.341-0.229,0.584-0.573,0.683-0.966l0.331-1.33l0.355-0.178c0.444-0.226,0.76-0.628,0.869-1.108l0.861-3.875l0.332-0.167
			c0.433-0.22,0.745-0.611,0.859-1.076l0.362-1.44l1.015-0.68c0.34-0.223,0.583-0.566,0.683-0.962l0.332-1.33l0.354-0.178
			c0.409-0.206,0.717-0.575,0.845-1.015l0.75-2.628c0.369-0.197,0.644-0.517,0.775-0.916l0.299-0.895l0.422-0.211
			c0.483-0.239,0.818-0.703,0.893-1.24l0.392-2.751l0.26-0.13c0.551-0.27,0.91-0.85,0.908-1.473l0-0.011l0.123-0.061
			c0.561-0.276,0.91-0.842,0.907-1.475l0-0.008l0.123-0.061c0.549-0.27,0.907-0.848,0.908-1.468l0-0.017l0.122-0.061
			c0.38-0.185,0.682-0.53,0.822-0.944l0.199-0.6c0.163-0.078,0.308-0.18,0.437-0.31c0.304-0.303,0.479-0.728,0.479-1.164l0-0.525
			l0.125-0.063c0.505-0.25,0.839-0.737,0.897-1.293c0.231-0.215,0.395-0.492,0.475-0.804l0.264-1.062
			c0.502-0.29,0.814-0.811,0.816-1.397l-0.001-0.351c0.011-0.011,0.02-0.021,0.03-0.03c0.31-0.309,0.484-0.722,0.486-1.164
			l-0.002-0.356c0.196-0.185,0.345-0.417,0.431-0.675l0.713-2.135c0.163-0.08,0.309-0.182,0.437-0.311
			c0.268-0.266,0.433-0.613,0.472-0.988c0.012-0.011,0.024-0.022,0.036-0.034c0.267-0.262,0.437-0.618,0.478-0.995
			c0.013-0.011,0.027-0.024,0.039-0.037c0.269-0.268,0.436-0.617,0.477-0.993c0.012-0.011,0.024-0.022,0.036-0.034
			c0.313-0.313,0.486-0.726,0.488-1.166l-0.002-0.354c0.01-0.009,0.019-0.019,0.028-0.026c0.307-0.303,0.486-0.73,0.488-1.166
			l-0.001-0.017l0.121-0.061c0.56-0.282,0.908-0.844,0.909-1.47l0.001-0.531l0.121-0.061c0.499-0.244,0.84-0.741,0.899-1.293
			c0.012-0.013,0.025-0.024,0.037-0.036c0.272-0.272,0.438-0.62,0.479-0.997c0.012-0.011,0.024-0.022,0.036-0.034
			c0.314-0.317,0.486-0.73,0.488-1.166l0-0.534l0.121-0.061c0.507-0.25,0.842-0.737,0.899-1.295c0.29-0.271,0.474-0.635,0.515-1.031
			c0.012-0.013,0.025-0.024,0.037-0.036c0.313-0.315,0.485-0.726,0.487-1.162l-0.001-0.356c0.285-0.268,0.464-0.626,0.506-1.019
			c0.232-0.215,0.397-0.494,0.476-0.808l0.264-1.056c0.505-0.292,0.815-0.817,0.813-1.404l0.001-0.345
			c0.009-0.009,0.018-0.019,0.028-0.026c0.272-0.274,0.438-0.622,0.479-0.997c0.333-0.309,0.525-0.743,0.523-1.209l0-0.009
			l0.122-0.061c0.396-0.198,0.689-0.538,0.826-0.957l0.813-2.437l0.421-0.211c0.56-0.282,0.908-0.844,0.909-1.47l0.001-1.044
			l0.118-0.059c0.397-0.198,0.692-0.54,0.829-0.963l0.2-0.597c0.478-0.235,0.803-0.662,0.89-1.189l0.377-2.262l0.279-0.141
			c0.493-0.244,0.829-0.718,0.898-1.267l0.376-3.011c0.418-0.306,0.667-0.786,0.665-1.317l0-0.011l0.123-0.061
			c0.559-0.276,0.907-0.838,0.908-1.468l0-0.364c0.322-0.313,0.513-0.746,0.516-1.196l0.124-0.063
			c0.234-0.117,0.441-0.292,0.595-0.507c0.218-0.304,0.379-0.593,0.488-0.876l0.173-0.051c0.272-0.078,0.513-0.22,0.704-0.409
			c0,0.002,0.003,0.002,0.007,0.002c0.056,0.001,0.461-0.099,1.188-0.09c0.584,0.007,1.184,0.082,1.602,0.197l0.244,0.486
			c0.219,0.433,0.61,0.746,1.076,0.86l1.322,0.33l0.176,0.355c0.255,0.507,0.743,0.841,1.298,0.898
			c0.134,0.146,0.294,0.265,0.472,0.352l0.117,0.06l0,0.906c-0.367,0.456-0.512,0.849-0.613,1.234
			c-0.168,0.078-0.317,0.182-0.45,0.317c-0.311,0.311-0.481,0.724-0.48,1.164l-0.001,1.041l-0.123,0.061
			c-0.507,0.256-0.84,0.743-0.898,1.295c-0.231,0.213-0.396,0.49-0.476,0.802l-0.26,1.041c-0.121,0.069-0.233,0.155-0.334,0.254
			c-0.316,0.319-0.488,0.733-0.486,1.175l-0.002,0.859c-0.286,0.268-0.465,0.629-0.507,1.023c-0.331,0.307-0.522,0.739-0.523,1.201
			l-0.001,0.531l-0.123,0.061c-0.548,0.27-0.906,0.848-0.908,1.468l0.001,0.353c-0.285,0.268-0.465,0.629-0.507,1.021
			c-0.331,0.309-0.523,0.741-0.525,1.203l0.002,0.353c-0.196,0.185-0.345,0.417-0.431,0.675l-0.713,2.135
			c-0.163,0.08-0.309,0.182-0.438,0.311c-0.268,0.266-0.432,0.613-0.471,0.99c-0.012,0.011-0.024,0.022-0.036,0.034
			c-0.267,0.266-0.436,0.618-0.477,0.991c-0.2,0.185-0.354,0.422-0.441,0.689l-1.331,3.987l-0.42,0.211
			c-0.385,0.187-0.689,0.538-0.826,0.957l-0.813,2.437l-0.421,0.211c-0.549,0.27-0.908,0.846-0.91,1.468l0.001,1.698l-0.812,0.54
			c-0.411,0.274-0.674,0.712-0.724,1.195c-0.291,0.27-0.474,0.633-0.515,1.031c-0.013,0.011-0.026,0.024-0.038,0.036
			c-0.313,0.315-0.485,0.726-0.487,1.164l0.001,0.356c-0.244,0.232-0.415,0.537-0.482,0.87l-0.358,1.789l-0.312,0.156
			c-0.385,0.187-0.688,0.536-0.825,0.957l-0.85,2.547l-1.075,0.717c-0.411,0.274-0.674,0.712-0.724,1.197
			c-0.332,0.307-0.523,0.739-0.523,1.203l-0.001,0.351c-0.195,0.185-0.345,0.419-0.431,0.677l-1.228,3.68
			c-0.163,0.08-0.309,0.182-0.438,0.311c-0.305,0.305-0.48,0.73-0.479,1.164l0,0.599c-0.18,0.309-0.364,0.6-0.547,0.886
			c-0.821,1.283-1.722,2.69-2.017,5.001c-0.094,0.77,0.346,1.49,1.07,1.752l0.482,0.178c2.075,0.752,4.219,1.53,4.663,3.313
			c0.069,0.264,0.198,0.505,0.375,0.7c0.21,0.237,0.244,0.448,0.294,1.245c0.04,0.645,0.089,1.436,0.41,2.33
			c0.086,0.244,0.231,0.465,0.419,0.644l0.001,0.347c-0.002,0.459,0.187,0.887,0.514,1.196l-0.001,1.891
			c0.002,0.462,0.19,0.889,0.516,1.198l0,0.349c0.002,0.438,0.178,0.863,0.484,1.167c0.048,0.048,0.096,0.09,0.144,0.131
			l0.413,3.526c0.044,0.389,0.223,0.744,0.504,1.008l-0.001,1.378c0.001,0.635,0.367,1.204,0.918,1.476l0.711,2.137
			c0.104,0.312,0.296,0.582,0.55,0.778l0.782,5.602l-0.166,0.112c-0.631,0.423-0.833,0.559-2.025,0.6
			c-0.231-0.24-0.534-0.406-0.864-0.471l-2.141-0.429l-3.228-2.824l0.001-0.796c0-0.625-0.347-1.187-0.906-1.47l-0.124-0.062
			l0-0.015c-0.005-0.449-0.179-0.861-0.489-1.169c-0.045-0.044-0.092-0.088-0.141-0.127l-0.412-3.528
			c-0.062-0.548-0.396-1.03-0.895-1.282l-0.125-0.064l0.001-1.039c-0.002-0.47-0.197-0.906-0.534-1.215
			c-0.053-0.408-0.218-0.738-0.471-0.987c-0.008-0.008-0.018-0.017-0.026-0.025l-0.001-1.38c0.004-0.44-0.169-0.857-0.488-1.169
			c-0.058-0.059-0.117-0.111-0.179-0.158l-0.9-5.134c-0.132-0.782-0.806-1.357-1.603-1.366l-0.242,0.016
			c-2.303,0.369-3.384,0.851-3.823,2.747c-0.058,0.248-0.109,0.463-0.232,0.727l-0.579,0.289c-0.511,0.257-0.845,0.743-0.901,1.297
			c-0.013,0.011-0.026,0.024-0.038,0.036c-0.307,0.305-0.485,0.728-0.487,1.162l0,0.534l-0.121,0.061
			c-0.432,0.215-0.745,0.607-0.861,1.076l-0.26,1.043c-0.384,0.217-0.658,0.574-0.768,1.011l-0.259,1.039
			c-0.123,0.071-0.237,0.158-0.339,0.261c-0.308,0.307-0.479,0.718-0.482,1.154l0,0.534l-0.121,0.061
			c-0.562,0.283-0.909,0.848-0.908,1.475l0,0.009l-0.122,0.061c-0.378,0.183-0.68,0.528-0.821,0.942l-0.205,0.615
			c-0.434,0.211-0.748,0.592-0.864,1.059l-0.33,1.327l-0.356,0.178c-0.386,0.189-0.689,0.538-0.825,0.955l-0.813,2.439l-0.421,0.211
			c-0.508,0.25-0.842,0.735-0.899,1.295c-0.012,0.011-0.025,0.022-0.037,0.034c-0.317,0.32-0.489,0.737-0.487,1.177l0,0.341
			l-0.548,0.549c-0.307,0.305-0.483,0.73-0.481,1.168l0,0.203l-1.403,1.053c-0.41,0.306-0.657,0.798-0.659,1.311l0,0.533
			l-0.121,0.061c-0.56,0.282-0.907,0.844-0.91,1.47l0.001,1.562l-0.122,0.061c-0.561,0.276-0.91,0.842-0.907,1.475l-0.001,0.343
			c-0.326,0.305-0.514,0.733-0.515,1.194l0.001,0.017l-0.122,0.061c-0.561,0.276-0.911,0.842-0.908,1.475l-0.001,1.222
			c-0.103,0.264-0.19,0.504-0.27,0.723c-0.365,0.998-0.365,0.998-2.241,1.039c-0.345,0.009-0.678,0.125-0.95,0.328L107.24,160.625z"
			/>
		<path class="st0" d="M229.137,115.158c-0.289-0.19-0.61-0.286-0.936-0.284l-0.258,0.022l-1.905,0.366
			c-0.281-0.201-0.621-0.311-0.971-0.309l-2.59,0.125c-0.067-0.064-0.138-0.12-0.213-0.171c-0.271-0.186-0.596-0.283-0.935-0.281
			l-0.117,0.01c-0.284-0.212-0.627-0.328-0.979-0.326l-1.153,0.2c-0.22-0.16-0.48-0.264-0.754-0.301l-2.233-0.294
			c-0.109-0.147-0.239-0.271-0.392-0.371c-0.268-0.184-0.588-0.281-0.921-0.279l-0.276,0.026l-0.369,0.07
			c-0.254-0.182-0.557-0.29-0.879-0.307l-1.116-0.06c-0.13-0.136-0.251-0.218-0.314-0.263c-0.365-0.246-0.766-0.28-0.974-0.278
			l-0.27,0.022l-0.461,0.086l-0.083-0.108c-0.308-0.398-0.821-0.632-1.371-0.629l-0.053,0.004c-0.019-0.013-0.038-0.028-0.058-0.041
			c-0.284-0.194-0.605-0.29-0.935-0.288l-0.277,0.026l-0.371,0.07l-0.645-0.436c-0.27-0.186-0.6-0.286-0.925-0.284l-0.311,0.047
			L205,110.807c-0.298-0.383-0.741-0.617-1.219-0.643l-1.364-0.075l-0.243-0.315c-0.297-0.381-0.739-0.613-1.214-0.639l-1.565-0.085
			l-2.089-1.777c-0.181-0.152-0.384-0.261-0.607-0.328l-0.258-0.072c-0.121-0.212-0.279-0.385-0.478-0.522
			c-0.286-0.192-0.609-0.29-0.939-0.288l-0.126,0.012c-0.014-0.011-0.03-0.023-0.045-0.032c-0.271-0.19-0.6-0.288-0.949-0.286
			l-0.549,0.089l-3.137-2.492c-0.27-0.218-0.599-0.341-0.947-0.356l-1.572-0.085l-2.7-2.209c-0.29-0.239-0.666-0.369-1.053-0.367
			l-0.244,0.02l-0.257,0.047l-1.301-1.179c-0.306-0.279-0.7-0.43-1.109-0.427l-0.275,0.026l-0.323,0.061l-4.992-3.77l-5.404-3.26
			l-0.056-0.293c-0.122-0.615-0.57-1.101-1.172-1.272l-0.381-0.106l-0.577-1.24c-0.139-0.295-0.358-0.538-0.63-0.705
			c-0.136-0.405-0.381-0.714-0.703-0.913c-0.179-0.522-0.552-0.897-1.018-1.063l-0.452-0.975c-0.135-0.289-0.346-0.527-0.61-0.696
			l-0.163-0.846c-0.12-0.621-0.58-1.107-1.169-1.272c-0.131-0.331-0.232-0.719-0.355-1.281l1.009-1.097
			c0.064-0.078,0.121-0.163,0.169-0.254c0.552-0.219,0.913-0.647,1.03-1.178l0.029-0.135l0.017-0.005
			c0.604-0.152,1.063-0.628,1.198-1.24l0.029-0.133l0.011-0.003c0.609-0.153,1.071-0.628,1.205-1.243l0.03-0.133l0.017-0.005
			c0.452-0.118,0.824-0.411,1.039-0.812c0.426-0.168,0.729-0.451,0.906-0.817l1.407-2.94l0.255-0.066
			c0.603-0.152,1.063-0.626,1.198-1.237l0.084-0.389l1.206-0.646c0.363-0.198,0.637-0.517,0.772-0.904l0.406-1.15l1.309-0.702
			c0.375-0.2,0.653-0.537,0.785-0.935l1.39-0.664c0.458-0.217,0.795-0.643,0.899-1.14l0.082-0.377l1.206-0.646
			c0.306-0.166,0.55-0.422,0.701-0.73l6.409-2.037l1.317,1.067c0.336,0.262,0.735,0.388,1.13,0.363l0.128-0.023
			c0.02,0.014,0.041,0.026,0.061,0.04c0.272,0.167,0.609,0.248,0.945,0.227l0.12-0.021c0.021,0.014,0.809,1.652,0.83,1.664
			l-6.782,5.016c-0.264,0.19-0.467,0.457-0.581,0.77l-1.154,2.643l-3.479,1.515c-0.379,0.142-0.686,0.414-0.872,0.762
			c-0.489,0.196-0.821,0.546-0.974,0.987l-0.324,0.919l-0.647,0.165c-0.686,0.175-1.182,0.766-1.234,1.471l-0.059,0.805
			l-0.679,0.434c-0.525,0.335-0.807,0.931-0.751,1.535c-0.752,1.071-2.825,1.225-2.629,2.333c0.091,0.517,0.686,2.117,1.136,2.383
			c0.471,0.274,0.727,0.744,1.084,1.396c0.348,0.635,0.732,1.336,1.386,2.001l0.171,0.149l0.236,0.146l1.835,0.897l0.649,1.397
			c0.086,0.185,0.204,0.349,0.351,0.489c0.88,0.848,1.789,1.083,2.452,1.253c0.727,0.189,0.997,0.257,1.438,1.147
			c0.243,0.495,0.709,0.826,1.25,0.898c0.169,0.3,0.429,0.541,0.75,0.687l3.751,1.719l1.092,1.108
			c0.306,0.313,0.736,0.492,1.179,0.49l0.318-0.034l0.082,0.106c0.264,0.347,0.664,0.578,1.096,0.632l1.127,0.149l2.14,1.824
			c0.305,0.256,0.687,0.394,1.08,0.392l0.25-0.022l0.252-0.047l1.301,1.179c0.309,0.279,0.703,0.43,1.11,0.427l0.276-0.026
			l0.176-0.033l0.685,0.695c0.315,0.317,0.736,0.49,1.187,0.488l0.309-0.032l0.084,0.108c0.268,0.353,0.674,0.583,1.112,0.632
			l2.532,0.335l0.286,0.372c0.314,0.407,0.805,0.649,1.313,0.646l0.316-0.034l0.083,0.108c0.31,0.409,0.8,0.651,1.308,0.648
			l0.313-0.047l0.093,0.121c0.313,0.406,0.804,0.645,1.312,0.642l0.257-0.022l0.387-0.074l0.643,0.436
			c0.277,0.186,0.6,0.283,0.936,0.281l0.118-0.01c0.02,0.015,0.041,0.03,0.062,0.043c0.281,0.186,0.6,0.281,0.927,0.279l0.125-0.01
			c0.285,0.207,0.632,0.32,0.991,0.318l0.106-0.016c0.018,0.015,0.036,0.028,0.055,0.041c0.28,0.192,0.603,0.288,0.94,0.286
			l0.312-0.034l0.084,0.109c0.301,0.391,0.751,0.619,1.268,0.644l2.111-0.052c0.305,0.309,0.719,0.485,1.156,0.482l0.648-0.104
			c0.282,0.203,0.624,0.315,0.976,0.313l0.242-0.02l0.401-0.074c0.28,0.201,0.618,0.311,0.967,0.309l0.275-0.026l0.371-0.07
			c0.28,0.203,0.619,0.315,0.967,0.313l0.644-0.104c0.282,0.205,0.624,0.317,0.977,0.314l4.676-0.464
			c0.052,0.045,0.107,0.087,0.165,0.126c0.264,0.178,0.592,0.277,0.919,0.275l0.12-0.014c0.019,0.015,0.039,0.028,0.059,0.041
			c0.278,0.188,0.599,0.286,0.926,0.284l3.682-0.685c0.248,0.18,0.543,0.289,0.854,0.31l0.312,0.008
			c1.033-0.006,1.897-0.411,2.528-0.707c0.241-0.113,0.457-0.217,0.64-0.282c0.116,0.143,0.257,0.268,0.416,0.367
			c0.128,0.39,0.355,0.684,0.652,0.881c0.088,0.06,0.184,0.113,0.285,0.154c-0.131,0.141-0.574,0.603-0.708,0.752
			c-0.55,0.61-1.11,1.233-1.609,1.56l-3.777,0.252c-0.454,0.025-0.885,0.25-1.179,0.617l-7.424,0.636
			C229.25,115.241,229.195,115.197,229.137,115.158z"/>
		<path class="st0" d="M6.236,199.999c-0.717-0.008-1.498-0.084-2.278-0.163c-0.842-0.969-1.856-1.394-2.608-1.71
			c-0.993-0.419-1.282-0.542-1.351-1.53c0.524-0.526,0.867-1.07,1.175-1.557c0.173-0.275,0.343-0.544,0.551-0.82l1.335-0.746
			c0.482-0.271,0.794-0.758,0.838-1.306l0.001-0.015l0.127-0.052c0.571-0.226,0.973-0.775,1.02-1.398l0.012-0.144l0.853-0.477
			c0.358-0.197,0.629-0.523,0.759-0.92l0.348-1.033c0.529-0.248,0.873-0.737,0.92-1.331l0.068-0.858
			c0.02-0.017,0.034-0.03,0.045-0.039c0.279-0.239,0.471-0.576,0.54-0.941c0.013-0.011,0.027-0.022,0.04-0.034
			c0.339-0.286,0.543-0.687,0.576-1.129l0.001-0.011l0.124-0.05c0.585-0.236,0.977-0.771,1.024-1.398l0.082-1.038l0.123-0.05
			c0.585-0.236,0.977-0.773,1.024-1.404l0.128-0.057c0.511-0.208,0.885-0.668,0.993-1.203c0.248-0.192,0.433-0.459,0.542-0.786
			l0.335-0.997c0.523-0.246,0.886-0.761,0.934-1.367l0.068-0.863c0.244-0.196,0.426-0.457,0.527-0.761l0.35-1.038
			c0.529-0.25,0.872-0.737,0.919-1.329l0.041-0.525l0.126-0.05c0.584-0.24,0.974-0.773,1.021-1.396l0.042-0.526l0.126-0.05
			c0.518-0.21,0.896-0.679,0.999-1.224c0.357-0.28,0.581-0.696,0.617-1.16l0.028-0.348c0.305-0.247,0.512-0.591,0.584-0.977
			c0.015-0.013,0.031-0.026,0.046-0.037c0.324-0.271,0.537-0.682,0.57-1.123l0.017-0.208l1.481-0.938
			c0.435-0.272,0.719-0.744,0.76-1.261l0.19-2.403c0.009-0.006,0.017-0.013,0.026-0.021c0.343-0.292,0.546-0.693,0.58-1.132
			l0.001-0.009l0.123-0.05c0.613-0.249,0.95-0.883,1.022-1.408l0.129-0.052c0.285-0.116,0.531-0.31,0.714-0.562
			c0.675-0.938,0.714-1.872,0.744-2.622c0.006-0.148,0.012-0.282,0.021-0.407c0.356-0.199,0.636-0.529,0.771-0.922l0.35-1.042
			c0.529-0.25,0.873-0.737,0.92-1.331l0.001-0.011l0.126-0.05c0.584-0.24,0.974-0.775,1.021-1.4l0.042-0.523l0.126-0.05
			c0.502-0.208,0.87-0.644,0.987-1.167l0.608-2.713l0.267-0.107c0.585-0.236,0.977-0.771,1.024-1.4l0.068-0.86
			c0.35-0.282,0.571-0.695,0.607-1.153l0.001-0.011l0.127-0.05c0.518-0.21,0.902-0.683,1.001-1.233l0.755-4.203l0.226-0.09
			c0.556-0.225,0.886-0.771,0.996-1.26c0.286-0.249,0.497-0.593,0.587-0.96c0.28-0.213,0.48-0.5,0.573-0.831l1.137-4.01
			c0.107-0.056,0.207-0.125,0.303-0.209c0.28-0.239,0.473-0.578,0.541-0.943c0.355-0.282,0.58-0.696,0.615-1.158l0.03-0.364
			c0.328-0.254,0.48-0.571,0.549-0.816l0.428-1.511c0.442-0.234,0.745-0.638,0.835-1.124c0.356-0.28,0.581-0.696,0.616-1.158
			l0.042-0.526l0.126-0.05c0.581-0.236,0.972-0.769,1.022-1.394l0.122-1.555l0.123-0.05c0.575-0.234,0.977-0.783,1.024-1.4
			l0.028-0.347c0.309-0.241,0.514-0.582,0.586-0.979c0.306-0.241,0.517-0.583,0.591-0.977l0.667-3.487
			c0.353-0.221,0.604-0.562,0.704-0.966l0.493-1.986c0.349-0.195,0.611-0.506,0.739-0.89l0.349-1.036
			c0.53-0.25,0.874-0.737,0.921-1.333l0.028-0.35c0.305-0.243,0.512-0.585,0.585-0.975c0.015-0.011,0.03-0.024,0.045-0.037
			c0.33-0.279,0.535-0.674,0.571-1.113l0.204-2.588l0.124-0.05c0.587-0.243,0.976-0.779,1.023-1.398l0.068-0.858
			c0.355-0.274,0.572-0.683,0.608-1.157l0.028-0.36c0.349-0.278,0.57-0.685,0.607-1.136l0.028-0.352
			c0.35-0.282,0.571-0.693,0.607-1.151l0.108-1.373c0.251-0.202,0.437-0.471,0.536-0.784l2.46-7.691l0.689-0.17
			c0.545-0.13,0.982-0.531,1.164-1.072l0.676-2.014c0.222-0.663,0-1.395-0.551-1.82l-0.806-0.635
			c-0.048-0.291-0.175-0.567-0.37-0.797c-0.283-0.333-0.682-0.537-1.123-0.574l-0.151-0.011L56.837,74
			c-0.269-0.485-0.758-0.797-1.31-0.838l-0.009,0l-0.05-0.124c-0.077-0.189-0.185-0.357-0.319-0.502
			c-0.004-0.121-0.019-0.233-0.043-0.336c0.014-0.032,0.026-0.064,0.037-0.096c0.304-0.882,0.445-0.944,1.367-1.356
			c0.402-0.181,0.781-0.355,1.2-0.587c0.261-0.149,0.465-0.345,0.611-0.588l0.072-0.119c0.26,0.02,0.576,0.045,0.579,0.045
			c0.65,0.008,1.18-0.278,1.492-0.805l0.419-0.693c1.003-0.724,1.891-1.132,2.785-1.279c0.658-0.106,1.183-0.598,1.334-1.254
			c0.62-2.676,1.875-5.601,3.215-7.508l0.636-0.256c0.609-0.249,0.947-0.885,1.02-1.41L70,56.244
			c0.179-0.074,0.341-0.176,0.482-0.303l3.294,0.258c0.545,0.518,1.026,0.677,1.438,0.786c0.16,0.04,0.213,0.054,0.386,0.173
			c1.767,1.203,1.735,1.512,1.352,5.296l-0.057,0.568c-0.045,0.443,0.087,0.877,0.373,1.221c0.284,0.339,0.682,0.544,1.123,0.584
			l0.36,0.029c0.281,0.35,0.694,0.571,1.152,0.609l5.486,0.432c0.169,0.209,0.387,0.376,0.635,0.481l2.078,0.879
			c0.065,0.168,0.157,0.322,0.276,0.46c0.245,0.287,0.577,0.479,0.947,0.547c0.281,0.354,0.695,0.579,1.157,0.616l0.298,0.024
			l3.424,4.462c-0.002,1.808,0.25,3.009,0.516,4.278l0.089,0.431l-1.006,6.421l0.008,0.372l0.144,0.879
			c-0.181,0.244-0.291,0.537-0.315,0.847l-0.108,1.373c-0.308,0.247-0.517,0.597-0.587,0.996l-0.717,3.979
			c-0.372,0.24-0.629,0.618-0.712,1.053c-0.356,0.278-0.581,0.694-0.617,1.166l-0.028,0.348c-0.276,0.222-0.476,0.531-0.564,0.882
			l-0.49,1.971c-0.083,0.048-0.163,0.104-0.24,0.168c-0.298,0.249-0.492,0.586-0.56,0.96c-0.286,0.22-0.487,0.529-0.575,0.895
			l-1.249,5.025c-0.418,0.234-0.706,0.632-0.795,1.103c-0.284,0.226-0.488,0.54-0.575,0.899l-0.492,1.975
			c-0.35,0.197-0.613,0.51-0.74,0.897l-0.332,0.989c-0.423,0.2-0.748,0.584-0.88,1.062l-0.424,1.494
			c-0.495,0.254-0.816,0.732-0.861,1.305l-0.026,0.324c-0.301,0.249-0.511,0.604-0.585,0.996c-0.172,0.134-0.315,0.307-0.427,0.514
			l-4.039,7.555l-1.809,1.148c-0.219,0.138-0.396,0.319-0.528,0.536l-0.072,0.119l-1.902-0.149c-0.212-0.262-0.502-0.457-0.828-0.55
			l-1.486-0.421c-0.056-0.105-0.124-0.204-0.202-0.296c-0.287-0.335-0.686-0.537-1.123-0.57l-0.524-0.04l-0.051-0.126
			c-0.241-0.585-0.777-0.976-1.4-1.023l-0.009,0l-0.05-0.122c-0.116-0.282-0.3-0.521-0.534-0.698
			c-0.829-0.624-1.63-0.925-2.159-1.125c-0.861-0.327-0.912-0.346-1.081-1.264c-0.038-0.213-0.117-0.413-0.236-0.592
			c-0.095-0.388-0.347-1.68-0.723-5.672l-0.038-0.393c-0.056-0.575-0.416-1.085-0.938-1.33l-0.312-0.151
			c-0.638-0.314-0.985-0.453-2.108-0.654c-0.013,0-0.027,0-0.041,0c-0.815-0.01-1.354,0.265-1.661,0.767
			c-0.025,0.028-0.125,0.086-0.18,0.117c-0.249,0.145-0.577,0.338-0.85,0.712c-0.156,0.21-0.237,0.469-0.278,0.668
			c-0.175,0.133-0.318,0.298-0.424,0.486c-0.468,0.838-0.656,1.685-0.82,2.433c-0.065,0.291-0.124,0.561-0.197,0.813
			c-0.452,0.171-0.81,0.54-0.97,1.018l-0.334,0.997c-0.525,0.246-0.887,0.765-0.934,1.373l-0.069,0.871
			c-0.35,0.276-0.571,0.685-0.606,1.141l-0.028,0.348c-0.35,0.28-0.571,0.693-0.608,1.149l-0.068,0.865
			c-0.349,0.282-0.57,0.693-0.607,1.147l-0.001,0.015l-0.127,0.052c-0.583,0.236-0.974,0.771-1.021,1.396l-0.108,1.375
			c-0.241,0.192-0.423,0.452-0.525,0.752l-0.344,1.023c-0.123,0.055-0.237,0.128-0.345,0.216c-0.346,0.301-0.549,0.701-0.583,1.136
			l-0.028,0.35c-0.305,0.241-0.513,0.587-0.585,0.977c-0.356,0.282-0.581,0.698-0.616,1.16l-0.066,0.839
			c-0.206,0.164-0.37,0.39-0.484,0.66l-0.369,0.873l-0.436,0.175c-0.502,0.208-0.87,0.644-0.987,1.165l-0.554,2.474
			c-0.3,0.175-0.531,0.437-0.668,0.764l-0.87,2.058c-0.575,0.223-0.985,0.764-1.035,1.409l-0.068,0.863
			c-0.3,0.241-0.506,0.578-0.581,0.958c-0.358,0.274-0.583,0.696-0.62,1.179l-0.029,0.348c-0.35,0.282-0.571,0.695-0.607,1.153
			l-0.068,0.86c-0.013,0.011-0.026,0.021-0.038,0.032c-0.331,0.284-0.54,0.697-0.57,1.131l-0.127,0.053
			c-0.441,0.179-0.783,0.54-0.938,0.994l-0.436,1.305l-0.364,0.145c-0.464,0.186-0.813,0.569-0.958,1.048l-1.161,3.788l-0.341,0.138
			c-0.584,0.236-0.976,0.771-1.023,1.4l-0.122,1.551l-0.126,0.05c-0.518,0.21-0.896,0.679-0.998,1.224
			c-0.016,0.013-0.033,0.026-0.048,0.039c-0.288,0.243-0.479,0.574-0.546,0.947c-0.016,0.013-0.033,0.026-0.048,0.039
			c-0.329,0.277-0.533,0.672-0.569,1.112l-0.028,0.358c-0.305,0.245-0.512,0.589-0.584,0.977c-0.361,0.274-0.581,0.683-0.617,1.164
			l-0.029,0.36c-0.214,0.166-0.379,0.377-0.482,0.624l-0.878,2.075c-0.16,0.064-0.312,0.154-0.446,0.264
			c-0.296,0.254-0.492,0.595-0.561,0.962c-0.356,0.282-0.581,0.696-0.616,1.158l-0.052,0.663l-0.853,0.475
			c-0.224,0.122-0.423,0.306-0.571,0.53c-0.443,0.666-0.638,1.52-0.844,2.426c-0.096,0.42-0.22,0.962-0.347,1.304l-1.21,0.674
			c-0.315,0.171-0.571,0.456-0.714,0.799l-2.906,6.869l-0.436,0.177c-0.542,0.221-0.868,0.748-0.986,1.23
			c-0.369,0.276-0.596,0.685-0.63,1.158l-0.028,0.341l-0.59,0.503c-0.336,0.294-0.538,0.691-0.571,1.127l-0.001,0.009l-0.123,0.05
			c-0.528,0.214-0.901,0.674-1.002,1.224c-0.014,0.011-0.028,0.022-0.041,0.034c-0.342,0.297-0.545,0.699-0.576,1.134l-0.017,0.199
			l-1.481,0.94c-0.435,0.279-0.718,0.75-0.758,1.261l-0.042,0.526l-0.126,0.05c-0.573,0.234-0.974,0.783-1.021,1.398l-0.017,0.206
			l-1.551,0.988C7.944,199.873,7.288,200.012,6.236,199.999z M66.385,115.405c0.301,0.474,0.813,0.758,1.371,0.765l0.277-0.021
			c0.314-0.061,0.422-0.069,0.477-0.074c0.481-0.023,0.874-0.202,1.223-0.568c1.916-1.047,2.347-2.285,2.727-3.378
			c0.091-0.26,0.188-0.54,0.32-0.838c0.57-0.177,1.011-0.672,1.124-1.276c0.015-0.011,0.03-0.024,0.045-0.035
			c0.329-0.277,0.539-0.687,0.572-1.123l0.042-0.526l0.123-0.05c0.5-0.199,0.871-0.636,0.99-1.165l0.555-2.478
			c0.375-0.219,0.64-0.572,0.746-1.001l0.494-1.986c0.427-0.241,0.719-0.651,0.801-1.135c0.352-0.284,0.58-0.696,0.612-1.136
			l0.072-0.903c0.277-0.247,0.481-0.586,0.568-0.947c0.364-0.284,0.595-0.698,0.628-1.149l0.028-0.347
			c0.289-0.234,0.492-0.555,0.573-0.922l0.552-2.461c0.075-0.045,0.148-0.097,0.218-0.155c0.291-0.249,0.483-0.58,0.551-0.953
			c0.308-0.243,0.519-0.587,0.593-0.981l0.666-3.474c0.399-0.249,0.667-0.656,0.737-1.138l1.118-7.659
			c0.06-0.412-0.037-0.829-0.268-1.165c0.01-0.011,0.02-0.023,0.03-0.032c0.346-0.388,0.488-0.921,0.384-1.426l-0.742-3.672
			c-0.128-0.619-0.606-1.118-1.215-1.269l-3.147-0.782l-0.228-0.02c-0.809,0.093-1.265,0.213-1.736,0.34
			c-0.746,0.2-1.39,0.374-2.391,0.362l-0.017,0c-0.375-0.004-0.926,0.052-1.372,0.589l-2.846,3.388
			c-0.223,0.265-0.356,0.589-0.381,0.936l-0.07,0.89c-0.354,0.284-0.571,0.678-0.604,1.121l-0.028,0.337
			c-0.35,0.276-0.571,0.693-0.607,1.162l-0.029,0.36c-0.353,0.274-0.57,0.676-0.607,1.138l-0.081,1.041l-0.126,0.05
			c-0.478,0.193-0.842,0.608-0.973,1.109L66.94,87.27c-0.483,0.26-0.796,0.734-0.839,1.292l-0.032,0.401
			c-0.012,0.011-0.025,0.021-0.037,0.032c-0.317,0.269-0.46,0.622-0.525,0.877c-0.019,0.015-0.039,0.032-0.058,0.049
			c-0.343,0.297-0.545,0.699-0.577,1.134l-0.03,0.375c-0.354,0.28-0.571,0.674-0.604,1.119l-0.149,1.888
			c-0.306,0.245-0.514,0.591-0.585,0.981c-0.283,0.22-0.482,0.527-0.572,0.886l-0.555,2.232l-0.289,0.116
			c-0.516,0.204-0.891,0.659-0.998,1.213l-0.877,4.586c-0.092,0.456,0.021,0.935,0.31,1.309c0.102,0.136,0.228,0.257,0.372,0.355
			l0.177,1.052c0.125,0.744,0.738,1.309,1.493,1.369l0.207,0.016l0.937,1.476c0.051,0.08,0.107,0.155,0.17,0.224l-0.067,0.863
			c-0.037,0.437,0.102,0.864,0.391,1.199c0.014,0.017,0.028,0.034,0.044,0.052c0.018,0.404,0.151,0.735,0.381,1.009
			c0.216,0.251,0.493,0.428,0.799,0.517L66.385,115.405z"/>
	</g>
	<g>
		<path class="st0" d="M214.903,168.534c0,1.21-0.184,2.318-0.551,3.32c-0.364,1.003-0.866,1.866-1.504,2.586
			c-0.635,0.723-1.391,1.277-2.256,1.662c-0.866,0.388-1.802,0.58-2.804,0.58c-1.003,0-1.906-0.216-2.711-0.641
			c-0.805-0.429-1.417-0.947-1.834-1.554c-0.752,0.606-1.455,1.213-2.102,1.819h-0.563c0.041-0.501,0.079-1.108,0.108-1.819
			c0.032-0.708,0.058-1.466,0.079-2.271c0.02-0.805,0.038-1.624,0.05-2.46c0.009-0.837,0.015-1.609,0.015-2.32v-5.673
			c0-0.711-0.006-1.484-0.015-2.32c-0.012-0.834-0.029-1.659-0.05-2.475c-0.02-0.816-0.047-1.592-0.079-2.335
			c-0.029-0.74-0.067-1.373-0.108-1.898c0.583,0.105,1.055,0.157,1.411,0.157c0.227,0,0.469-0.015,0.72-0.047
			c0.251-0.032,0.522-0.067,0.816-0.111c-0.064,0.42-0.117,1.081-0.157,1.991c-0.044,0.91-0.073,1.924-0.093,3.04
			c-0.023,1.119-0.044,2.268-0.064,3.449s-0.041,2.25-0.061,3.212h0.061c0.711-1.128,1.493-1.953,2.35-2.475
			c0.857-0.525,1.851-0.784,2.979-0.784c1.084,0,2.026,0.204,2.822,0.609c0.793,0.408,1.452,0.947,1.974,1.615
			c0.522,0.67,0.912,1.449,1.175,2.335C214.772,166.615,214.903,167.551,214.903,168.534z M212.143,168.437
			c0-0.959-0.12-1.813-0.359-2.554c-0.242-0.74-0.554-1.364-0.942-1.866s-0.837-0.883-1.347-1.143
			c-0.513-0.262-1.041-0.394-1.583-0.394c-0.647,0-1.271,0.122-1.866,0.361c-0.595,0.242-1.114,0.638-1.551,1.192
			c-0.44,0.554-0.79,1.274-1.049,2.16c-0.262,0.889-0.394,1.982-0.394,3.277c0,4.201,1.525,6.3,4.577,6.3
			c0.647,0,1.242-0.172,1.787-0.516c0.542-0.344,1.017-0.842,1.425-1.49s0.726-1.42,0.956-2.32
			C212.029,170.548,212.143,169.545,212.143,168.437z"/>
		<path class="st0" d="M225.966,176.399c-0.23-0.563-0.528-1.294-0.892-2.192c-0.367-0.898-0.758-1.845-1.178-2.836
			c-0.417-0.994-0.845-2.009-1.286-3.04c-0.437-1.035-0.851-2.008-1.236-2.915c-0.388-0.91-0.726-1.708-1.02-2.399
			c-0.292-0.688-0.51-1.201-0.656-1.536c0.271,0.044,0.522,0.079,0.752,0.111c0.227,0.032,0.458,0.047,0.688,0.047
			c0.23,0,0.461-0.015,0.691-0.047c0.227-0.032,0.478-0.067,0.752-0.111c0.647,2.006,1.367,3.994,2.163,5.956
			c0.793,1.965,1.63,3.991,2.507,6.081c0.877-1.839,1.717-3.801,2.522-5.891c0.805-2.09,1.522-4.139,2.148-6.145
			c0.417,0.105,0.761,0.157,1.035,0.157c0.271,0,0.615-0.052,1.032-0.157c-0.146,0.294-0.379,0.79-0.703,1.49
			c-0.326,0.7-0.711,1.536-1.16,2.507c-0.452,0.971-0.942,2.049-1.475,3.23c-0.531,1.181-1.076,2.39-1.63,3.635
			c-0.554,1.242-1.102,2.475-1.644,3.699c-0.545,1.221-1.047,2.382-1.504,3.478c-0.461,1.096-0.863,2.09-1.207,2.979
			c-0.347,0.886-0.601,1.592-0.77,2.113c-0.417-0.105-0.773-0.154-1.064-0.154c-0.294,0-0.65,0.05-1.067,0.154
			C223.416,181.873,224.818,179.136,225.966,176.399z"/>
		<path class="st0" d="M250.774,158.893c-0.052-1.326-0.111-2.679-0.172-4.058c0.271,0.041,0.531,0.079,0.781,0.111
			c0.251,0.029,0.504,0.047,0.755,0.047c0.251,0,0.501-0.018,0.752-0.047c0.251-0.032,0.51-0.07,0.781-0.111
			c-0.061,1.379-0.12,2.731-0.172,4.058c-0.052,1.329-0.079,2.682-0.079,4.061c0,2.632,0.012,4.915,0.032,6.848
			c0.02,1.933,0.041,3.661,0.064,5.186c1.481,0,2.903-0.015,4.262-0.047c1.358-0.029,2.822-0.152,4.387-0.359
			c-0.105,0.376-0.157,0.688-0.157,0.939c0,0.23,0.052,0.513,0.157,0.848c-0.962-0.044-1.921-0.064-2.883-0.064s-1.924,0-2.883,0
			c-1.003,0-1.971,0-2.901,0c-0.93,0-1.895,0.02-2.898,0.064c0.061-1.297,0.12-2.612,0.172-3.95
			c0.052-1.338,0.079-2.696,0.079-4.075v-5.39C250.853,161.575,250.826,160.223,250.774,158.893z"/>
		<path class="st0" d="M268.343,162.983c0.939-0.708,1.807-1.189,2.6-1.44s1.609-0.376,2.446-0.376c0.752,0,1.44,0.108,2.067,0.329
			c0.627,0.219,1.16,0.531,1.6,0.939c0.437,0.408,0.784,0.901,1.035,1.475c0.251,0.574,0.376,1.207,0.376,1.895
			c0,1.192-0.023,2.379-0.064,3.556c-0.041,1.181-0.061,2.431-0.061,3.746c0,0.251,0.003,0.519,0.015,0.799
			c0.009,0.283,0.058,0.533,0.14,0.755c0.085,0.219,0.204,0.402,0.361,0.548s0.391,0.219,0.705,0.219
			c0.105,0,0.213-0.006,0.329-0.015c0.114-0.012,0.224-0.05,0.329-0.111v0.688c-0.23,0.105-0.519,0.189-0.863,0.251
			c-0.344,0.064-0.726,0.096-1.143,0.096c-0.67,0-1.181-0.172-1.536-0.519c-0.356-0.344-0.566-0.787-0.627-1.332
			c-0.752,0.752-1.495,1.306-2.227,1.662c-0.732,0.356-1.63,0.533-2.694,0.533c-0.525,0-1.035-0.073-1.536-0.219
			c-0.501-0.146-0.947-0.388-1.332-0.723c-0.388-0.332-0.7-0.735-0.942-1.204c-0.239-0.472-0.359-1.009-0.359-1.615
			c0-1.253,0.391-2.227,1.175-2.915c0.784-0.691,1.866-1.149,3.245-1.379c1.128-0.189,2.008-0.35,2.647-0.487
			c0.638-0.134,1.108-0.277,1.411-0.423c0.303-0.146,0.487-0.318,0.548-0.516c0.064-0.198,0.093-0.455,0.093-0.77
			c0-0.522-0.061-1.023-0.187-1.504c-0.125-0.481-0.324-0.898-0.595-1.253c-0.274-0.356-0.627-0.641-1.067-0.863
			c-0.437-0.219-0.971-0.329-1.597-0.329c-0.837,0-1.615,0.189-2.335,0.566c-0.723,0.376-1.259,0.898-1.615,1.568h-0.344V162.983z
			 M276.083,168.563c-0.356,0.125-0.767,0.23-1.236,0.315c-0.472,0.085-0.947,0.172-1.428,0.265
			c-0.478,0.093-0.953,0.216-1.425,0.361c-0.469,0.146-0.886,0.344-1.254,0.595c-0.364,0.251-0.659,0.566-0.877,0.942
			s-0.329,0.857-0.329,1.44c0,0.982,0.283,1.726,0.848,2.227c0.563,0.501,1.189,0.752,1.88,0.752c0.793,0,1.519-0.222,2.178-0.659
			c0.659-0.44,1.163-0.95,1.519-1.536L276.083,168.563z"/>
		<path class="st0" d="M293.699,168.093v1.944h-7.804v-1.944H293.699z"/>
		<path class="st0" d="M304.575,176.369c-0.962-2.466-1.93-4.932-2.901-7.399s-2.032-4.962-3.18-7.492
			c0.271,0.044,0.533,0.079,0.784,0.111c0.251,0.032,0.51,0.047,0.781,0.047c0.23,0,0.461-0.015,0.691-0.047
			c0.23-0.032,0.461-0.067,0.688-0.111c0.65,2.07,1.353,4.102,2.116,6.098c0.764,1.994,1.615,4.037,2.557,6.128
			c0.417-0.857,0.828-1.781,1.236-2.775c0.408-0.991,0.816-2.02,1.224-3.087c0.405-1.067,0.802-2.137,1.189-3.212
			c0.388-1.076,0.77-2.125,1.146-3.151c0.376,0.105,0.7,0.157,0.971,0.157s0.595-0.052,0.971-0.157
			c-1.128,2.53-2.236,5.026-3.323,7.492c-1.084,2.466-2.078,4.932-2.976,7.399c-0.312-0.044-0.638-0.064-0.971-0.064
			C305.243,176.305,304.908,176.326,304.575,176.369z"/>
		<path class="st0" d="M318.582,156.025c0-0.437,0.157-0.813,0.469-1.128c0.315-0.312,0.691-0.469,1.131-0.469
			c0.437,0,0.813,0.157,1.128,0.469c0.312,0.315,0.469,0.691,0.469,1.128c0,0.44-0.157,0.816-0.469,1.131
			c-0.315,0.312-0.691,0.469-1.128,0.469c-0.44,0-0.816-0.157-1.131-0.469C318.74,156.841,318.582,156.465,318.582,156.025z
			 M319.022,167.341c0-0.942-0.017-1.927-0.047-2.962c-0.032-1.035-0.102-2-0.204-2.901c0.583,0.105,1.055,0.157,1.411,0.157
			c0.353,0,0.825-0.052,1.408-0.157c-0.105,0.901-0.172,1.866-0.204,2.901c-0.029,1.035-0.047,2.02-0.047,2.962v3.259
			c0,0.942,0.017,1.927,0.047,2.962c0.032,1.035,0.099,1.971,0.204,2.807c-0.481-0.044-0.95-0.064-1.408-0.064
			c-0.461,0-0.933,0.02-1.411,0.064c0.102-0.837,0.172-1.772,0.204-2.807c0.029-1.035,0.047-2.02,0.047-2.962V167.341z"/>
		<path class="st0" d="M328.52,169.411c0-2.571,0.612-4.588,1.834-6.052c1.224-1.46,3.005-2.192,5.346-2.192
			c1.105,0,2.061,0.172,2.866,0.516c0.805,0.344,1.478,0.805,2.023,1.379c0.542,0.577,0.944,1.251,1.207,2.023
			c0.259,0.772,0.391,1.597,0.391,2.475c0,0.21-0.006,0.414-0.015,0.612c-0.012,0.198-0.026,0.402-0.047,0.612
			c-1.128-0.023-2.248-0.044-3.355-0.064c-1.108-0.02-2.224-0.032-3.352-0.032c-0.691,0-1.376,0.012-2.052,0.032
			c-0.682,0.02-1.364,0.041-2.055,0.064c-0.02,0.102-0.032,0.259-0.032,0.469v0.408c0,0.813,0.122,1.577,0.361,2.285
			c0.239,0.711,0.592,1.323,1.049,1.834c0.461,0.513,1.023,0.921,1.694,1.224c0.668,0.303,1.443,0.455,2.32,0.455
			c0.417,0,0.845-0.058,1.283-0.172c0.44-0.117,0.869-0.274,1.286-0.472c0.42-0.198,0.81-0.431,1.175-0.705
			c0.367-0.271,0.685-0.563,0.956-0.877l0.157,0.096l-0.187,1.533c-0.627,0.501-1.408,0.93-2.335,1.286
			c-0.93,0.356-1.898,0.533-2.901,0.533c-1.128,0-2.157-0.172-3.087-0.516c-0.93-0.347-1.734-0.848-2.414-1.504
			c-0.679-0.659-1.201-1.437-1.568-2.338C328.704,171.425,328.52,170.455,328.52,169.411z M335.761,162.17
			c-0.773,0-1.426,0.178-1.959,0.533c-0.533,0.356-0.971,0.799-1.318,1.332c-0.344,0.531-0.606,1.117-0.781,1.755
			c-0.178,0.635-0.289,1.236-0.329,1.802c0.647,0.02,1.321,0.041,2.02,0.061c0.7,0.023,1.385,0.032,2.055,0.032
			c0.688,0,1.388-0.009,2.099-0.032c0.708-0.02,1.399-0.041,2.07-0.061c0-0.566-0.05-1.16-0.143-1.787
			c-0.093-0.627-0.283-1.213-0.563-1.755c-0.283-0.542-0.676-0.991-1.178-1.347C337.233,162.348,336.577,162.17,335.761,162.17z"/>
		<path class="st0" d="M355.429,158.893c-0.052-1.326-0.111-2.679-0.172-4.058c0.939,0.041,1.874,0.079,2.804,0.111
			c0.93,0.029,1.866,0.047,2.804,0.047c0.942,0,1.892-0.018,2.854-0.047c0.959-0.032,2.006-0.07,3.134-0.111
			c-0.064,0.312-0.093,0.627-0.093,0.939c0,0.315,0.029,0.627,0.093,0.942c-0.566-0.064-1.245-0.12-2.038-0.172
			c-0.793-0.052-1.603-0.093-2.428-0.125c-0.825-0.032-1.621-0.058-2.382-0.079c-0.764-0.02-1.396-0.032-1.898-0.032
			c-0.02,0.732-0.035,1.431-0.047,2.102c-0.012,0.668-0.015,1.335-0.015,2.006c0,0.732,0.003,1.405,0.015,2.02
			c0.012,0.618,0.015,1.259,0.015,1.927c1.379,0,2.743-0.02,4.09-0.061c1.35-0.041,2.682-0.125,3.997-0.251
			c-0.082,0.312-0.125,0.627-0.125,0.942c0,0.312,0.044,0.627,0.125,0.939c-0.522-0.061-1.111-0.111-1.769-0.14
			c-0.659-0.032-1.344-0.058-2.052-0.079c-0.711-0.02-1.431-0.032-2.163-0.032c-0.732,0-1.431,0-2.102,0v2.664
			c0,1.379,0.026,2.737,0.079,4.075c0.052,1.338,0.111,2.653,0.172,3.95c-0.481-0.044-0.991-0.064-1.533-0.064
			c-0.545,0-1.058,0.02-1.536,0.064c0.061-1.297,0.12-2.612,0.172-3.95c0.052-1.338,0.079-2.696,0.079-4.075v-5.39
			C355.508,161.575,355.482,160.223,355.429,158.893z"/>
		<path class="st0" d="M373.372,162.983c0.939-0.708,1.807-1.189,2.6-1.44s1.609-0.376,2.446-0.376c0.752,0,1.44,0.108,2.067,0.329
			c0.627,0.219,1.16,0.531,1.6,0.939c0.437,0.408,0.784,0.901,1.035,1.475c0.251,0.574,0.376,1.207,0.376,1.895
			c0,1.192-0.023,2.379-0.064,3.556c-0.041,1.181-0.061,2.431-0.061,3.746c0,0.251,0.003,0.519,0.015,0.799
			c0.009,0.283,0.058,0.533,0.14,0.755c0.085,0.219,0.204,0.402,0.361,0.548s0.391,0.219,0.705,0.219
			c0.105,0,0.213-0.006,0.329-0.015c0.114-0.012,0.224-0.05,0.329-0.111v0.688c-0.23,0.105-0.519,0.189-0.863,0.251
			c-0.344,0.064-0.726,0.096-1.143,0.096c-0.67,0-1.181-0.172-1.536-0.519c-0.356-0.344-0.566-0.787-0.627-1.332
			c-0.752,0.752-1.495,1.306-2.227,1.662c-0.732,0.356-1.63,0.533-2.694,0.533c-0.525,0-1.035-0.073-1.536-0.219
			c-0.501-0.146-0.947-0.388-1.332-0.723c-0.388-0.332-0.7-0.735-0.942-1.204c-0.239-0.472-0.359-1.009-0.359-1.615
			c0-1.253,0.391-2.227,1.175-2.915c0.784-0.691,1.866-1.149,3.245-1.379c1.128-0.189,2.009-0.35,2.647-0.487
			c0.638-0.134,1.108-0.277,1.411-0.423c0.303-0.146,0.487-0.318,0.548-0.516c0.064-0.198,0.093-0.455,0.093-0.77
			c0-0.522-0.061-1.023-0.187-1.504c-0.125-0.481-0.324-0.898-0.595-1.253c-0.274-0.356-0.627-0.641-1.067-0.863
			c-0.437-0.219-0.971-0.329-1.598-0.329c-0.837,0-1.615,0.189-2.335,0.566c-0.723,0.376-1.259,0.898-1.615,1.568h-0.344V162.983z
			 M381.111,168.563c-0.356,0.125-0.767,0.23-1.236,0.315c-0.472,0.085-0.947,0.172-1.428,0.265
			c-0.478,0.093-0.953,0.216-1.425,0.361c-0.469,0.146-0.886,0.344-1.254,0.595c-0.364,0.251-0.659,0.566-0.877,0.942
			s-0.329,0.857-0.329,1.44c0,0.982,0.283,1.726,0.848,2.227c0.563,0.501,1.189,0.752,1.88,0.752c0.793,0,1.519-0.222,2.178-0.659
			c0.659-0.44,1.163-0.95,1.519-1.536L381.111,168.563z"/>
		<path class="st0" d="M391.207,168.971c0-1.358,0.227-2.527,0.688-3.51s1.061-1.793,1.802-2.428
			c0.743-0.638,1.595-1.108,2.557-1.411c0.959-0.303,1.941-0.455,2.944-0.455c1.149,0,2.18,0.14,3.087,0.423
			c0.91,0.283,1.562,0.601,1.959,0.956c-0.146,0.312-0.277,0.641-0.391,0.988c-0.114,0.344-0.216,0.703-0.297,1.081h-0.251
			c-0.146-0.274-0.344-0.551-0.595-0.831c-0.251-0.283-0.551-0.545-0.895-0.784c-0.344-0.242-0.726-0.44-1.143-0.598
			c-0.42-0.154-0.877-0.233-1.379-0.233c-0.942,0-1.752,0.172-2.431,0.516c-0.679,0.347-1.233,0.822-1.662,1.425
			c-0.428,0.606-0.74,1.323-0.939,2.148c-0.198,0.825-0.297,1.72-0.297,2.679c0,2.154,0.458,3.778,1.379,4.874
			c0.918,1.099,2.268,1.647,4.043,1.647c0.417,0,0.845-0.058,1.286-0.172c0.437-0.117,0.866-0.274,1.286-0.472
			c0.417-0.198,0.807-0.431,1.175-0.705c0.364-0.271,0.682-0.563,0.956-0.877l0.155,0.096c-0.105,0.501-0.166,1.012-0.187,1.533
			c-0.627,0.501-1.405,0.93-2.335,1.286c-0.93,0.356-1.898,0.533-2.901,0.533c-0.898,0-1.802-0.131-2.711-0.391
			c-0.91-0.262-1.729-0.7-2.46-1.318c-0.732-0.615-1.321-1.414-1.77-2.396C391.431,171.594,391.207,170.393,391.207,168.971z"/>
		<path class="st0" d="M415.813,157.281c-0.064,0.793-0.111,1.571-0.143,2.335c-0.032,0.761-0.067,1.53-0.108,2.303
			c0.227,0,0.656-0.006,1.283-0.017c0.627-0.009,1.306-0.035,2.038-0.076c-0.02,0.061-0.029,0.178-0.029,0.344v0.312v0.347
			c0,0.146,0.009,0.251,0.029,0.312c-0.271-0.02-0.554-0.035-0.845-0.047c-0.292-0.009-0.606-0.015-0.942-0.015h-1.533
			c-0.023,0.082-0.05,0.417-0.079,1.003c-0.032,0.583-0.058,1.28-0.079,2.084c-0.02,0.805-0.038,1.644-0.047,2.522
			c-0.012,0.877-0.017,1.662-0.017,2.352c0,0.583,0.017,1.157,0.047,1.723c0.032,0.566,0.131,1.07,0.3,1.519
			c0.166,0.452,0.417,0.81,0.752,1.081c0.332,0.274,0.813,0.408,1.44,0.408c0.169,0,0.394-0.02,0.673-0.061
			c0.283-0.044,0.528-0.096,0.738-0.157v0.752c-0.356,0.064-0.746,0.14-1.175,0.236c-0.429,0.093-0.842,0.14-1.239,0.14
			c-1.315,0-2.288-0.324-2.915-0.971c-0.627-0.647-0.939-1.6-0.939-2.854c0-0.563,0.009-1.175,0.029-1.834
			c0.02-0.659,0.05-1.379,0.079-2.163c0.032-0.781,0.058-1.65,0.079-2.6c0.02-0.95,0.032-2.011,0.032-3.18h-1.003
			c-0.169,0-0.344,0.006-0.533,0.015c-0.187,0.012-0.388,0.026-0.595,0.047c0.02-0.125,0.035-0.245,0.047-0.359
			c0.009-0.117,0.015-0.236,0.015-0.361c0-0.105-0.006-0.21-0.015-0.315c-0.012-0.102-0.026-0.207-0.047-0.312
			c0.939,0.061,1.629,0.093,2.067,0.093c-0.02-0.417-0.035-0.939-0.047-1.568c-0.009-0.627-0.035-1.274-0.079-1.941l2.603-1.096
			H415.813z"/>
		<path class="st0" d="M424.806,168.971c0-1.42,0.224-2.627,0.673-3.621c0.452-0.991,1.041-1.796,1.772-2.414
			c0.732-0.615,1.551-1.064,2.46-1.347s1.813-0.423,2.711-0.423c0.918,0,1.828,0.14,2.726,0.423
			c0.901,0.283,1.714,0.732,2.446,1.347c0.732,0.618,1.321,1.423,1.772,2.414c0.449,0.994,0.673,2.201,0.673,3.621
			c0,1.423-0.224,2.629-0.673,3.621c-0.452,0.991-1.041,1.796-1.772,2.414c-0.732,0.615-1.545,1.049-2.446,1.3
			c-0.898,0.251-1.807,0.376-2.726,0.376c-0.898,0-1.802-0.125-2.711-0.376s-1.729-0.685-2.46-1.3
			c-0.732-0.618-1.321-1.423-1.772-2.414C425.031,171.6,424.806,170.393,424.806,168.971z M427.564,168.971
			c0,0.877,0.079,1.723,0.236,2.539c0.157,0.813,0.423,1.542,0.799,2.178c0.376,0.638,0.877,1.146,1.504,1.522
			s1.402,0.563,2.32,0.563c0.918,0,1.694-0.187,2.32-0.563c0.627-0.376,1.128-0.883,1.504-1.522
			c0.376-0.635,0.641-1.364,0.799-2.178c0.157-0.816,0.236-1.662,0.236-2.539c0-0.877-0.079-1.723-0.236-2.539
			c-0.157-0.813-0.423-1.539-0.799-2.178c-0.376-0.638-0.877-1.146-1.504-1.522c-0.627-0.376-1.402-0.563-2.32-0.563
			c-0.918,0-1.694,0.187-2.32,0.563c-0.627,0.376-1.128,0.883-1.504,1.522c-0.376,0.638-0.641,1.364-0.799,2.178
			C427.642,167.248,427.564,168.093,427.564,168.971z"/>
		<path class="st0" d="M453.345,163.706c-0.303-0.105-0.612-0.157-0.924-0.157c-0.504,0-0.953,0.114-1.35,0.344
			c-0.396,0.23-0.732,0.539-1.003,0.924c-0.271,0.388-0.481,0.848-0.627,1.379c-0.146,0.533-0.219,1.105-0.219,1.708v3.449
			c0,1.399,0.003,2.472,0.015,3.212c0.012,0.743,0.047,1.344,0.111,1.804c-0.42-0.044-0.837-0.064-1.254-0.064
			c-0.461,0-0.901,0.02-1.318,0.064c0.064-0.711,0.099-1.679,0.111-2.901c0.009-1.221,0.015-2.723,0.015-4.498v-1.003
			c0-0.816-0.006-1.755-0.015-2.822c-0.012-1.064-0.047-2.288-0.111-3.667c0.23,0.044,0.449,0.079,0.659,0.111
			c0.21,0.032,0.429,0.047,0.659,0.047c0.187,0,0.385-0.015,0.595-0.047c0.21-0.032,0.429-0.067,0.659-0.111
			c-0.085,0.752-0.131,1.35-0.143,1.787c-0.009,0.44-0.015,0.857-0.015,1.253l0.064,0.032c1.23-2.256,2.612-3.384,4.137-3.384
			c0.187,0,0.35,0.009,0.484,0.032c0.137,0.02,0.309,0.073,0.519,0.154c-0.105,0.251-0.169,0.633-0.189,1.146
			c-0.02,0.51-0.029,0.977-0.029,1.393l-0.222,0.157C453.849,163.925,453.648,163.811,453.345,163.706z"/>
		<path class="st0" d="M465.239,176.399c-0.23-0.563-0.528-1.294-0.892-2.192c-0.367-0.898-0.758-1.845-1.178-2.836
			c-0.417-0.994-0.845-2.009-1.286-3.04c-0.437-1.035-0.851-2.008-1.236-2.915c-0.388-0.91-0.726-1.708-1.02-2.399
			c-0.292-0.688-0.51-1.201-0.656-1.536c0.271,0.044,0.522,0.079,0.752,0.111c0.227,0.032,0.458,0.047,0.688,0.047
			c0.23,0,0.461-0.015,0.691-0.047c0.227-0.032,0.478-0.067,0.752-0.111c0.647,2.006,1.367,3.994,2.163,5.956
			c0.793,1.965,1.63,3.991,2.507,6.081c0.877-1.839,1.717-3.801,2.522-5.891c0.805-2.09,1.522-4.139,2.148-6.145
			c0.417,0.105,0.761,0.157,1.035,0.157c0.271,0,0.615-0.052,1.032-0.157c-0.146,0.294-0.379,0.79-0.703,1.49
			c-0.326,0.7-0.711,1.536-1.16,2.507c-0.452,0.971-0.942,2.049-1.475,3.23c-0.531,1.181-1.076,2.39-1.63,3.635
			c-0.554,1.242-1.102,2.475-1.644,3.699c-0.545,1.221-1.047,2.382-1.504,3.478c-0.461,1.096-0.863,2.09-1.207,2.979
			c-0.347,0.886-0.6,1.592-0.77,2.113c-0.417-0.105-0.772-0.154-1.064-0.154c-0.294,0-0.65,0.05-1.067,0.154
			C462.688,181.873,464.09,179.136,465.239,176.399z"/>
	</g>
</g>
</svg>
